<svg width="95" height="95" viewBox="0 0 95 95" fill="none" xmlns="http://www.w3.org/2000/svg">
<circle cx="47.5" cy="47.5" r="47.5" fill="url(#paint0_linear_299_512)"/>
<path d="M72.4118 65H69.7647V24.5C69.7647 24.1022 69.5974 23.7206 69.2995 23.4393C69.0017 23.158 68.5977 23 68.1765 23H53.3529C52.9317 23 52.5277 23.158 52.2299 23.4393C51.932 23.7206 51.7647 24.1022 51.7647 24.5V35H38.5294C38.1082 35 37.7042 35.158 37.4064 35.4393C37.1085 35.7206 36.9412 36.1022 36.9412 36.5V47H25.8235C25.4023 47 24.9983 47.158 24.7005 47.4393C24.4026 47.7206 24.2353 48.1022 24.2353 48.5V65H21.5882C21.167 65 20.763 65.158 20.4652 65.4393C20.1673 65.7206 20 66.1022 20 66.5C20 66.8978 20.1673 67.2794 20.4652 67.5607C20.763 67.842 21.167 68 21.5882 68H72.4118C72.833 68 73.237 67.842 73.5348 67.5607C73.8327 67.2794 74 66.8978 74 66.5C74 66.1022 73.8327 65.7206 73.5348 65.4393C73.237 65.158 72.833 65 72.4118 65ZM54.9412 26H66.5882V65H54.9412V26ZM40.1176 38H51.7647V65H40.1176V38ZM27.4118 50H36.9412V65H27.4118V50Z" fill="white" fill-opacity="0.8"/>
<defs>
<linearGradient id="paint0_linear_299_512" x1="2.49344" y1="11.8064" x2="111.257" y2="30.9419" gradientUnits="userSpaceOnUse">
<stop stop-color="#001E86"/>
<stop offset="0.485" stop-color="#5C0094"/>
<stop offset="1" stop-color="#980092"/>
</linearGradient>
</defs>
</svg>
