<svg width="78" height="78" viewBox="0 0 78 78" fill="none" xmlns="http://www.w3.org/2000/svg">
<g clip-path="url(#clip0_299_526)">
<rect width="78" height="78" rx="24" fill="white"/>
<path d="M72 0H6C4.4087 0 2.88258 0.747075 1.75736 2.07688C0.632141 3.40668 0 5.21028 0 7.09091V70.9091C0 72.7897 0.632141 74.5933 1.75736 75.9231C2.88258 77.2529 4.4087 78 6 78H72C73.5913 78 75.1174 77.2529 76.2426 75.9231C77.3679 74.5933 78 72.7897 78 70.9091V7.09091C78 5.21028 77.3679 3.40668 76.2426 2.07688C75.1174 0.747075 73.5913 0 72 0ZM25.8 46.8C26.4365 47.3642 26.8573 48.2041 26.9698 49.135C27.0824 50.0658 26.8774 51.0114 26.4 51.7636C25.9226 52.5159 25.2119 53.0132 24.4243 53.1462C23.6366 53.2792 22.8365 53.0369 22.2 52.4727L10.2 41.8364C9.82741 41.5061 9.525 41.0779 9.31672 40.5856C9.10843 40.0933 9 39.5504 9 39C9 38.4496 9.10843 37.9067 9.31672 37.4144C9.525 36.9221 9.82741 36.4939 10.2 36.1636L22.2 25.5273C22.8365 24.9631 23.6366 24.7208 24.4243 24.8538C25.2119 24.9868 25.9226 25.4841 26.4 26.2364C26.8774 26.9886 27.0824 27.9342 26.9698 28.865C26.8573 29.7959 26.4365 30.6358 25.8 31.2L17.8432 38.2516C17.3942 38.6495 17.3942 39.3505 17.8432 39.7484L25.8 46.8ZM47.8838 15.1568L35.8838 64.7932C35.7815 65.2488 35.6034 65.6757 35.3598 66.049C35.1163 66.4223 34.8122 66.7344 34.4654 66.9672C34.1185 67.1999 33.7359 67.3486 33.3399 67.4045C32.9438 67.4604 32.5424 67.4224 32.1589 67.2928C31.7754 67.1631 31.4177 66.9444 31.1066 66.6494C30.7955 66.3544 30.5373 65.9891 30.3471 65.5748C30.1569 65.1605 30.0386 64.7055 29.9989 64.2365C29.9593 63.7674 29.9992 63.2938 30.1162 62.8432L42.1162 13.2068C42.3469 12.3193 42.8629 11.5741 43.5534 11.1313C44.244 10.6886 45.0539 10.5836 45.8092 10.839C46.5645 11.0944 47.2049 11.6897 47.5928 12.4971C47.9807 13.3044 48.0852 14.2594 47.8838 15.1568ZM67.8 41.8364L55.8 52.4727C55.1635 53.0369 54.3634 53.2792 53.5757 53.1462C52.7881 53.0132 52.0774 52.5159 51.6 51.7636C51.1226 51.0114 50.9176 50.0658 51.0301 49.135C51.1427 48.2041 51.5635 47.3642 52.2 46.8L60.1568 39.7484C60.6058 39.3505 60.6058 38.6495 60.1568 38.2516L52.2 31.2C51.8848 30.9206 51.6193 30.5707 51.4186 30.17C51.2179 29.7694 51.0859 29.326 51.0301 28.865C50.9744 28.4041 50.9961 27.9347 51.0939 27.4837C51.1916 27.0327 51.3636 26.6088 51.6 26.2364C51.8364 25.8639 52.1325 25.5501 52.4715 25.3129C52.8105 25.0756 53.1857 24.9197 53.5757 24.8538C53.9657 24.788 54.3629 24.8136 54.7445 24.9291C55.1262 25.0447 55.4848 25.2479 55.8 25.5273L67.8 36.1636C68.1726 36.4939 68.475 36.9221 68.6833 37.4144C68.8916 37.9067 69 38.4496 69 39C69 39.5504 68.8916 40.0933 68.6833 40.5856C68.475 41.0779 68.1726 41.5061 67.8 41.8364Z" fill="url(#paint0_linear_299_526)"/>
</g>
<defs>
<linearGradient id="paint0_linear_299_526" x1="2.04724" y1="9.69364" x2="91.3479" y2="25.4049" gradientUnits="userSpaceOnUse">
<stop stop-color="#001E86"/>
<stop offset="0.485" stop-color="#5C0094"/>
<stop offset="1" stop-color="#980092"/>
</linearGradient>
<clipPath id="clip0_299_526">
<rect width="78" height="78" rx="24" fill="white"/>
</clipPath>
</defs>
</svg>
