<svg width="50" height="38" viewBox="0 0 50 38" fill="none" xmlns="http://www.w3.org/2000/svg">
<path d="M41.9633 3.43671C38.86 1.99004 35.5 0.940041 32 0.333374C31.9385 0.334251 31.8798 0.359411 31.8367 0.403375C31.4167 1.17337 30.9267 2.17671 30.6 2.94671C26.8876 2.38706 23.1124 2.38706 19.4 2.94671C19.0733 2.15337 18.5833 1.17337 18.14 0.403375C18.1167 0.356708 18.0467 0.333374 17.9767 0.333374C14.4767 0.940041 11.14 1.99004 8.01334 3.43671C7.99 3.43671 7.96667 3.46004 7.94334 3.48337C1.59667 12.98 -0.153329 22.22 0.710004 31.3667C0.710004 31.4134 0.733337 31.46 0.780004 31.4834C4.98 34.5634 9.01667 36.43 13.0067 37.6667C13.0767 37.69 13.1467 37.6667 13.17 37.62C14.1033 36.3367 14.9433 34.9834 15.6667 33.56C15.7133 33.4667 15.6667 33.3734 15.5733 33.35C14.2433 32.8367 12.9833 32.23 11.7467 31.53C11.6533 31.4834 11.6533 31.3434 11.7233 31.2734C11.98 31.0867 12.2367 30.8767 12.4933 30.69C12.54 30.6434 12.61 30.6434 12.6567 30.6667C20.6833 34.33 29.34 34.33 37.2733 30.6667C37.32 30.6434 37.39 30.6434 37.4367 30.69C37.6933 30.9 37.95 31.0867 38.2067 31.2967C38.3 31.3667 38.3 31.5067 38.1833 31.5534C36.97 32.2767 35.6867 32.86 34.3567 33.3734C34.2633 33.3967 34.24 33.5134 34.2633 33.5834C35.01 35.0067 35.85 36.36 36.76 37.6434C36.83 37.6667 36.9 37.69 36.97 37.6667C40.9833 36.43 45.02 34.5634 49.22 31.4834C49.2667 31.46 49.29 31.4134 49.29 31.3667C50.3167 20.7967 47.5867 11.6267 42.0567 3.48337C42.0333 3.46004 42.01 3.43671 41.9633 3.43671ZM16.88 25.79C14.4767 25.79 12.47 23.5734 12.47 20.8434C12.47 18.1134 14.43 15.8967 16.88 15.8967C19.3533 15.8967 21.3133 18.1367 21.29 20.8434C21.29 23.5734 19.33 25.79 16.88 25.79ZM33.1433 25.79C30.74 25.79 28.7333 23.5734 28.7333 20.8434C28.7333 18.1134 30.6933 15.8967 33.1433 15.8967C35.6167 15.8967 37.5767 18.1367 37.5533 20.8434C37.5533 23.5734 35.6167 25.79 33.1433 25.79Z" fill="#D9D9D9"/>
</svg>
