<svg width="72" height="40" viewBox="0 0 72 40" fill="none" xmlns="http://www.w3.org/2000/svg">
<path d="M71 36V37H72V36H71ZM36 1V2V1ZM1 36H0L5.96046e-08 37H1L1 36ZM9.75 36H8.75V37H9.75V36ZM11.8003 25.8296L12.1878 24.9077L11.2659 24.5202L10.8784 25.4421L11.8003 25.8296ZM12.919 26.2997L13.8409 26.6872L14.2284 25.7653L13.3065 25.3779L12.919 26.2997ZM10.9635 36V37H11.9635V36H10.9635ZM30.4956 34.3127C30.4956 37.2582 32.8834 39.6461 35.8289 39.6461C38.7745 39.6461 41.1623 37.2582 41.1623 34.3127C41.1623 31.3672 38.7745 28.9794 35.8289 28.9794C32.8834 28.9794 30.4956 31.3672 30.4956 34.3127ZM2.34202 21.0603C1.82304 20.8714 1.2492 21.139 1.06031 21.658C0.871414 22.177 1.139 22.7508 1.65798 22.9397L2.34202 21.0603ZM72 36C72 31.2724 71.0688 26.5911 69.2597 22.2234L67.4119 22.9888C69.1206 27.1138 70 31.5351 70 36H72ZM69.2597 22.2234C67.4505 17.8557 64.7988 13.8871 61.4558 10.5442L60.0416 11.9584C63.1988 15.1156 65.7032 18.8637 67.4119 22.9888L69.2597 22.2234ZM61.4558 10.5442C58.1129 7.20125 54.1443 4.54951 49.7766 2.74034L49.0112 4.5881C53.1363 6.29676 56.8844 8.80118 60.0416 11.9584L61.4558 10.5442ZM49.7766 2.74034C45.4089 0.931167 40.7276 -2.38419e-07 36 0V2C40.4649 2 44.8862 2.87944 49.0112 4.5881L49.7766 2.74034ZM36 0C31.2724 1.78814e-07 26.5911 0.931168 22.2234 2.74034L22.9888 4.5881C27.1138 2.87944 31.5351 2 36 2V0ZM22.2234 2.74034C17.8557 4.54951 13.8871 7.20125 10.5442 10.5442L11.9584 11.9584C15.1156 8.80118 18.8637 6.29676 22.9888 4.5881L22.2234 2.74034ZM10.5442 10.5442C7.20124 13.8871 4.5495 17.8557 2.74034 22.2234L4.58809 22.9888C6.29675 18.8637 8.80118 15.1156 11.9584 11.9584L10.5442 10.5442ZM2.74034 22.2234C0.931167 26.5911 -3.57628e-07 31.2724 0 36H2C2 31.5351 2.87944 27.1138 4.58809 22.9888L2.74034 22.2234ZM10.75 36C10.75 32.6403 11.4205 29.3143 12.7222 26.217L10.8784 25.4421C9.4736 28.7848 8.75 32.3742 8.75 36H10.75ZM11.4129 26.7515L12.5316 27.2216L13.3065 25.3779L12.1878 24.9077L11.4129 26.7515ZM11.9971 25.9123C10.6549 29.1061 9.9635 32.5356 9.9635 36H11.9635C11.9635 32.8017 12.6018 29.6356 13.8409 26.6872L11.9971 25.9123ZM10.9635 35H9.75V37H10.9635V35ZM36.171 33.373L2.34202 21.0603L1.65798 22.9397L35.4869 35.2524L36.171 33.373ZM1 37L71 37V35L1 35L1 37Z" fill="white"/>
</svg>
