<svg width="95" height="95" viewBox="0 0 95 95" fill="none" xmlns="http://www.w3.org/2000/svg">
<circle cx="47.5" cy="47.5" r="47.5" fill="url(#paint0_linear_299_511)"/>
<path d="M49 32.875C46.4041 32.875 43.8665 33.6448 41.7081 35.087C39.5497 36.5292 37.8675 38.579 36.8741 40.9773C35.8807 43.3756 35.6208 46.0146 36.1272 48.5606C36.6336 51.1066 37.8837 53.4452 39.7192 55.2808C41.5548 57.1163 43.8934 58.3664 46.4394 58.8728C48.9854 59.3792 51.6244 59.1193 54.0227 58.1259C56.421 57.1325 58.4708 55.4503 59.913 53.2919C61.3552 51.1335 62.125 48.5959 62.125 46C62.1214 42.5201 60.7374 39.1839 58.2768 36.7232C55.8162 34.2626 52.4799 32.8786 49 32.875ZM49 54.75C47.2694 54.75 45.5777 54.2368 44.1388 53.2754C42.6998 52.3139 41.5783 50.9473 40.9161 49.3485C40.2538 47.7496 40.0805 45.9903 40.4181 44.293C40.7558 42.5956 41.5891 41.0365 42.8128 39.8128C44.0365 38.5891 45.5956 37.7558 47.293 37.4181C48.9903 37.0805 50.7496 37.2538 52.3485 37.9161C53.9473 38.5783 55.3139 39.6998 56.2754 41.1388C57.2368 42.5777 57.75 44.2694 57.75 46C57.75 48.3206 56.8281 50.5462 55.1872 52.1872C53.5462 53.8281 51.3206 54.75 49 54.75ZM73.0625 46.5906C73.0734 46.1969 73.0734 45.8031 73.0625 45.4094L77.1422 40.3125C77.3561 40.0449 77.5042 39.7308 77.5745 39.3955C77.6448 39.0602 77.6353 38.713 77.5469 38.382C76.8781 35.868 75.8777 33.4543 74.5719 31.2043C74.4009 30.9099 74.1636 30.6594 73.8787 30.4728C73.5939 30.2863 73.2695 30.1688 72.9313 30.1297L66.4453 29.4078C66.1755 29.1234 65.9021 28.85 65.625 28.5875L64.8594 22.0852C64.82 21.7467 64.7021 21.4221 64.515 21.1372C64.328 20.8524 64.077 20.6152 63.782 20.4445C61.5312 19.1412 59.1176 18.1417 56.6043 17.4723C56.2731 17.3842 55.9258 17.3752 55.5905 17.446C55.2552 17.5167 54.9412 17.6653 54.6738 17.8797L49.5906 21.9375H48.4094L43.3125 17.866C43.0449 17.6521 42.7308 17.504 42.3955 17.4337C42.0602 17.3635 41.713 17.3729 41.382 17.4613C38.8685 18.1313 36.4548 19.1317 34.2043 20.4363C33.9099 20.6073 33.6594 20.8446 33.4728 21.1295C33.2863 21.4143 33.1688 21.7387 33.1297 22.077L32.4078 28.5738C32.1234 28.8454 31.85 29.1189 31.5875 29.3941L25.0852 30.1406C24.7467 30.18 24.4221 30.2979 24.1372 30.485C23.8524 30.672 23.6152 30.923 23.4445 31.218C22.1412 33.4688 21.1417 35.8824 20.4723 38.3957C20.3842 38.7269 20.3752 39.0742 20.446 39.4095C20.5167 39.7448 20.6653 40.0588 20.8797 40.3262L24.9375 45.4094V46.5906L20.866 51.6875C20.6521 51.9551 20.504 52.2692 20.4337 52.6045C20.3635 52.9398 20.3729 53.287 20.4613 53.618C21.1301 56.132 22.1306 58.5457 23.4363 60.7957C23.6073 61.0901 23.8446 61.3406 24.1295 61.5272C24.4143 61.7137 24.7387 61.8312 25.077 61.8703L31.5629 62.5922C31.8345 62.8766 32.1079 63.15 32.3832 63.4125L33.1406 69.9148C33.18 70.2533 33.2979 70.5779 33.485 70.8628C33.672 71.1476 33.923 71.3848 34.218 71.5555C36.4688 72.8589 38.8824 73.8583 41.3957 74.5277C41.7269 74.6158 42.0742 74.6248 42.4095 74.554C42.7448 74.4833 43.0588 74.3347 43.3262 74.1203L48.4094 70.0625C48.8031 70.0734 49.1969 70.0734 49.5906 70.0625L54.6875 74.1422C54.9551 74.3561 55.2692 74.5042 55.6045 74.5745C55.9398 74.6448 56.287 74.6353 56.618 74.5469C59.132 73.8781 61.5457 72.8777 63.7957 71.5719C64.0901 71.4009 64.3406 71.1636 64.5272 70.8787C64.7137 70.5939 64.8312 70.2695 64.8703 69.9313L65.5922 63.4453C65.8766 63.1755 66.15 62.9021 66.4125 62.625L72.9148 61.8594C73.2533 61.82 73.5779 61.7021 73.8628 61.515C74.1476 61.328 74.3848 61.077 74.5555 60.782C75.8589 58.5312 76.8583 56.1176 77.5277 53.6043C77.6158 53.2731 77.6248 52.9258 77.554 52.5905C77.4833 52.2552 77.3347 51.9412 77.1203 51.6738L73.0625 46.5906ZM68.6602 44.8133C68.7066 45.6038 68.7066 46.3963 68.6602 47.1867C68.6276 47.7279 68.7971 48.2619 69.1359 48.6852L73.016 53.5332C72.5708 54.9481 72.0007 56.3207 71.3125 57.6348L65.1328 58.3348C64.5947 58.3945 64.0978 58.6517 63.7383 59.0566C63.212 59.6487 62.6514 60.2093 62.0594 60.7355C61.6544 61.095 61.3972 61.5919 61.3375 62.1301L60.6512 68.3043C59.3373 68.9929 57.9647 69.563 56.5496 70.0078L51.6988 66.1277C51.3107 65.8176 50.8285 65.6488 50.3316 65.6492H50.2004C49.4099 65.6957 48.6174 65.6957 47.827 65.6492C47.2858 65.6166 46.7518 65.7862 46.3285 66.125L41.4668 70.0078C40.0519 69.5625 38.6793 68.9925 37.3652 68.3043L36.6652 62.1328C36.6055 61.5947 36.3483 61.0978 35.9434 60.7383C35.3513 60.212 34.7907 59.6514 34.2645 59.0594C33.905 58.6544 33.4081 58.3972 32.8699 58.3375L26.6957 57.6484C26.0071 56.3346 25.437 54.962 24.9922 53.5469L28.8723 48.6961C29.2111 48.2728 29.3806 47.7388 29.3481 47.1977C29.3016 46.4072 29.3016 45.6147 29.3481 44.8242C29.3806 44.283 29.2111 43.749 28.8723 43.3258L24.9922 38.4668C25.4375 37.0519 26.0075 35.6793 26.6957 34.3652L32.8672 33.6652C33.4054 33.6055 33.9022 33.3483 34.2617 32.9434C34.788 32.3513 35.3486 31.7907 35.9406 31.2645C36.3472 30.9047 36.6054 30.4067 36.6652 29.8672L37.3516 23.6957C38.6654 23.0071 40.038 22.437 41.4531 21.9922L46.3039 25.8723C46.7272 26.2111 47.2612 26.3806 47.8023 26.3481C48.5928 26.3016 49.3853 26.3016 50.1758 26.3481C50.717 26.3806 51.251 26.2111 51.6742 25.8723L56.5332 21.9922C57.9481 22.4375 59.3207 23.0075 60.6348 23.6957L61.3348 29.8672C61.3945 30.4054 61.6517 30.9022 62.0566 31.2617C62.6487 31.788 63.2093 32.3486 63.7355 32.9406C64.095 33.3456 64.5919 33.6028 65.1301 33.6625L71.3043 34.3488C71.9929 35.6627 72.563 37.0353 73.0078 38.4504L69.1277 43.3012C68.7857 43.728 68.6159 44.2675 68.652 44.8133H68.6602Z" fill="white" fill-opacity="0.8"/>
<defs>
<linearGradient id="paint0_linear_299_511" x1="2.49344" y1="11.8064" x2="111.257" y2="30.9419" gradientUnits="userSpaceOnUse">
<stop stop-color="#001E86"/>
<stop offset="0.485" stop-color="#5C0094"/>
<stop offset="1" stop-color="#980092"/>
</linearGradient>
</defs>
</svg>
