<svg width="45" height="46" viewBox="0 0 45 46" fill="none" xmlns="http://www.w3.org/2000/svg">
<path d="M42.11 3.34359C40.4906 1.72414 38.5421 0.915156 36.2645 0.916628H8.68909C6.41009 0.916628 4.4616 1.72561 2.84363 3.34359C1.22418 4.96303 0.415198 6.91152 0.41667 9.18904V36.7645C0.41667 39.0435 1.22566 40.992 2.84363 42.61C4.46307 44.2294 6.41156 45.0384 8.68909 45.0369H15.1242C15.5438 45.0369 15.8595 45.0222 16.0715 44.9927C16.3185 44.944 16.5413 44.8123 16.7031 44.6195C16.9137 44.3987 17.0189 44.0785 17.0189 43.6589L17.0035 41.7045C16.9946 40.459 16.9902 39.4727 16.9902 38.7454L16.3277 38.8602C15.9081 38.9368 15.3774 38.9706 14.7355 38.9618C14.0657 38.949 13.3981 38.8818 12.7392 38.7608C12.0371 38.6335 11.3764 38.338 10.8135 37.8996C10.2227 37.4528 9.78203 36.8365 9.55034 36.1329L9.26325 35.4704C9.02035 34.9483 8.71643 34.4568 8.35784 34.0063C7.94561 33.4704 7.52898 33.1068 7.10792 32.9154L6.90917 32.7718C6.77116 32.6719 6.64518 32.5563 6.53375 32.4273C6.42732 32.3076 6.34015 32.172 6.27538 32.0254C6.21796 31.89 6.26581 31.7796 6.41892 31.6942C6.57203 31.6058 6.85028 31.5624 7.25367 31.5639L7.82784 31.6522C8.21061 31.7273 8.68393 31.9562 9.2478 32.339C9.81768 32.7275 10.2937 33.2383 10.6413 33.834C11.0829 34.6173 11.6144 35.2157 12.2357 35.6294C12.8584 36.0416 13.4856 36.2478 14.1172 36.2478C14.7488 36.2478 15.2949 36.1999 15.7558 36.1042C16.202 36.0117 16.6357 35.8664 17.0476 35.6714C17.2199 34.3891 17.6888 33.4027 18.4543 32.7122C17.4615 32.6141 16.4775 32.4413 15.5106 32.1955C14.5671 31.9366 13.6598 31.5605 12.8098 31.0758C11.9204 30.5916 11.1348 29.9373 10.4977 29.1502C9.88527 28.3846 9.3825 27.3798 8.98942 26.1358C8.59781 24.8903 8.402 23.4534 8.402 21.8251C8.402 19.5093 9.15799 17.5365 10.67 15.9068C9.9633 14.1652 10.0303 12.213 10.8709 10.0503C11.4274 9.87657 12.2511 10.0054 13.342 10.4368C14.433 10.8681 15.2324 11.2362 15.7403 11.5409C16.2482 11.8501 16.6553 12.1092 16.9615 12.3183C18.7566 11.8177 20.6121 11.5666 22.4757 11.5718C24.3719 11.5718 26.2107 11.8206 27.9921 12.3183L29.083 11.6293C29.9222 11.1255 30.8073 10.7025 31.7264 10.3661C32.7408 9.98331 33.5166 9.87804 34.054 10.0503C34.9153 12.2145 34.9911 14.1674 34.2815 15.909C35.7949 17.5358 36.5516 19.5086 36.5516 21.8273C36.5516 23.4556 36.3551 24.8962 35.962 26.149C35.5704 27.4034 35.0632 28.4089 34.4405 29.1656C33.7903 29.9408 33.0018 30.5886 32.1151 31.0758C31.1876 31.5926 30.2873 31.9658 29.4143 32.1955C28.4475 32.4421 27.4635 32.6156 26.4706 32.7144C27.4643 33.5757 27.9619 34.9345 27.9634 36.791V43.6589C27.9634 43.9828 28.0113 44.2456 28.107 44.4473C28.1516 44.5441 28.2153 44.631 28.2942 44.7027C28.3731 44.7744 28.4657 44.8295 28.5663 44.8647C28.7768 44.9412 28.9638 44.9883 29.1272 45.006C29.2906 45.0266 29.5247 45.0362 29.8295 45.0347H36.2645C38.5435 45.0347 40.492 44.2257 42.11 42.6077C43.728 40.9898 44.537 39.0413 44.537 36.7623V9.18904C44.537 6.91004 43.7294 4.96156 42.11 3.34359Z" fill="#D9D9D9"/>
</svg>
