<svg width="40" height="43" viewBox="0 0 40 43" fill="none" xmlns="http://www.w3.org/2000/svg">
<path d="M19.9999 0.833374C30.5857 0.833374 39.1666 9.41429 39.1666 20C39.1666 30.5858 30.5857 39.1667 19.9999 39.1667C9.41417 39.1667 0.833252 30.5858 0.833252 20C0.833252 9.41429 9.41417 0.833374 19.9999 0.833374ZM19.9999 4.66671C15.9333 4.66671 12.0332 6.28218 9.15761 9.15774C6.28206 12.0333 4.66659 15.9334 4.66659 20C4.66659 24.0667 6.28206 27.9668 9.15761 30.8423C12.0332 33.7179 15.9333 35.3334 19.9999 35.3334C24.0666 35.3334 27.9667 33.7179 30.8422 30.8423C33.7178 27.9668 35.3333 24.0667 35.3333 20C35.3333 15.9334 33.7178 12.0333 30.8422 9.15774C27.9667 6.28218 24.0666 4.66671 19.9999 4.66671ZM19.9999 8.50004C20.4694 8.5001 20.9225 8.67246 21.2733 8.98441C21.6241 9.29637 21.8482 9.72623 21.9032 10.1925L21.9166 10.4167V19.2065L27.105 24.395C27.4488 24.7399 27.6483 25.2027 27.6632 25.6894C27.6781 26.1762 27.5071 26.6503 27.185 27.0156C26.863 27.3808 26.4139 27.6098 25.9292 27.656C25.4444 27.7022 24.9602 27.5621 24.575 27.2642L24.3948 27.1051L18.6448 21.3551C18.3469 21.057 18.1556 20.669 18.1005 20.2511L18.0833 20V10.4167C18.0833 9.90838 18.2852 9.42087 18.6446 9.06142C19.0041 8.70198 19.4916 8.50004 19.9999 8.50004Z" fill="#ECA5F8"/>
</svg>
