<svg width="72" height="41" viewBox="0 0 72 41" fill="none" xmlns="http://www.w3.org/2000/svg">
<path d="M71 36V37H72V36H71ZM36 1V2V1ZM1 36H0L5.96046e-08 37H1L1 36ZM9.75 36H8.75V37H9.75V36ZM60.7451 27.2398L61.0788 28.1825L62.0215 27.8487L61.6878 26.9061L60.7451 27.2398ZM59.6012 27.6448L58.6585 27.9785L58.9922 28.9212L59.9349 28.5874L59.6012 27.6448ZM10.9635 36V37H11.9635V36H10.9635ZM30.6667 34.9995C30.6667 37.945 33.0545 40.3328 36 40.3328C38.9455 40.3328 41.3333 37.945 41.3333 34.9995C41.3333 32.0539 38.9455 29.6661 36 29.6661C33.0545 29.6661 30.6667 32.0539 30.6667 34.9995ZM70.7924 25.6995C71.3218 25.5422 71.6234 24.9854 71.466 24.456C71.3086 23.9266 70.7519 23.6251 70.2225 23.7825L70.7924 25.6995ZM72 36C72 31.2724 71.0688 26.5911 69.2597 22.2234L67.4119 22.9888C69.1206 27.1138 70 31.5351 70 36H72ZM69.2597 22.2234C67.4505 17.8557 64.7988 13.8871 61.4558 10.5442L60.0416 11.9584C63.1988 15.1156 65.7032 18.8637 67.4119 22.9888L69.2597 22.2234ZM61.4558 10.5442C58.1129 7.20125 54.1443 4.54951 49.7766 2.74034L49.0112 4.5881C53.1363 6.29676 56.8844 8.80118 60.0416 11.9584L61.4558 10.5442ZM49.7766 2.74034C45.4089 0.931167 40.7276 -2.38419e-07 36 0V2C40.4649 2 44.8862 2.87944 49.0112 4.5881L49.7766 2.74034ZM36 0C31.2724 1.78814e-07 26.5911 0.931168 22.2234 2.74034L22.9888 4.5881C27.1138 2.87944 31.5351 2 36 2V0ZM22.2234 2.74034C17.8557 4.54951 13.8871 7.20125 10.5442 10.5442L11.9584 11.9584C15.1156 8.80118 18.8637 6.29676 22.9888 4.5881L22.2234 2.74034ZM10.5442 10.5442C7.20124 13.8871 4.5495 17.8557 2.74034 22.2234L4.58809 22.9888C6.29675 18.8637 8.80118 15.1156 11.9584 11.9584L10.5442 10.5442ZM2.74034 22.2234C0.931167 26.5911 -3.57628e-07 31.2724 0 36H2C2 31.5351 2.87944 27.1138 4.58809 22.9888L2.74034 22.2234ZM10.75 36C10.75 30.0445 12.855 24.2807 16.6932 19.727L15.1639 18.4381C11.0218 23.3525 8.75 29.5728 8.75 36H10.75ZM16.6932 19.727C20.5313 15.1733 25.8555 12.1228 31.725 11.1145L31.3864 9.14339C25.052 10.2315 19.3061 13.5237 15.1639 18.4381L16.6932 19.727ZM31.725 11.1145C37.5945 10.1062 43.6315 11.205 48.7693 14.2168L49.7807 12.4914C44.236 9.24109 37.7208 8.05523 31.3864 9.14339L31.725 11.1145ZM48.7693 14.2168C53.9071 17.2286 57.815 21.9595 59.8025 27.5735L61.6878 26.9061C59.5429 20.8473 55.3255 15.7417 49.7807 12.4914L48.7693 14.2168ZM60.4114 26.2971L59.2675 26.7021L59.9349 28.5874L61.0788 28.1825L60.4114 26.2971ZM60.5439 27.311C58.4945 21.5221 54.4649 16.6439 49.1671 13.5383L48.1556 15.2637C53.0465 18.1307 56.7666 22.6342 58.6585 27.9785L60.5439 27.311ZM49.1671 13.5383C43.8692 10.4327 37.6442 9.29968 31.5919 10.3394L31.9305 12.3105C37.5179 11.3507 43.2648 12.3967 48.1556 15.2637L49.1671 13.5383ZM31.5919 10.3394C25.5396 11.3791 20.0495 14.5246 16.0918 19.2201L17.6211 20.5091C21.2748 16.1742 26.3431 13.2703 31.9305 12.3105L31.5919 10.3394ZM16.0918 19.2201C12.1341 23.9157 9.96351 29.859 9.9635 36H11.9635C11.9635 30.3307 13.9674 24.8439 17.6211 20.5091L16.0918 19.2201ZM10.9635 35H9.75V37H10.9635V35ZM36.285 35.958L70.7924 25.6995L70.2225 23.7825L35.715 34.0409L36.285 35.958ZM1 37L71 37V35L1 35L1 37Z" fill="white"/>
</svg>
