<svg width="57" height="57" viewBox="0 0 57 57" fill="none" xmlns="http://www.w3.org/2000/svg">
<path d="M44.5312 16.4766L42.18 13.7412C40.1864 11.6473 37.7876 9.98098 35.1296 8.84355C32.4716 7.70612 29.6099 7.12142 26.7188 7.12502C14.918 7.12502 5.34375 16.6992 5.34375 28.5C5.34375 40.3008 14.918 49.875 26.7188 49.875C31.1396 49.8747 35.4517 48.5043 39.0617 45.9524C42.6716 43.4005 45.4019 39.7925 46.8769 35.625" stroke="white" stroke-width="6" stroke-miterlimit="10" stroke-linecap="round"/>
<path d="M51.6562 10.8456V23.1562C51.6562 23.6287 51.4686 24.0817 51.1345 24.4158C50.8005 24.7498 50.3474 24.9375 49.875 24.9375H37.5643C35.9768 24.9375 35.1819 23.0193 36.3041 21.8971L48.6159 9.58534C49.738 8.46093 51.6562 9.25804 51.6562 10.8456Z" fill="white"/>
</svg>
