<svg width="86" height="35" viewBox="0 0 86 35" fill="none" xmlns="http://www.w3.org/2000/svg">
<g clip-path="url(#clip0_96_75)">
<path opacity="0.53" d="M84.8152 0.875H1.83139C1.5835 0.875 1.34577 0.962614 1.17049 1.11856C0.995205 1.27451 0.896729 1.48601 0.896729 1.70655V34.1684C0.896729 34.389 0.995205 34.6005 1.17049 34.7564C1.34577 34.9124 1.5835 35 1.83139 35H84.8152C85.0631 35 85.3008 34.9124 85.4761 34.7564C85.6514 34.6005 85.7499 34.389 85.7499 34.1684V1.70655C85.7499 1.48601 85.6514 1.27451 85.4761 1.11856C85.3008 0.962614 85.0631 0.875 84.8152 0.875ZM67.856 3.76991C67.856 3.54936 67.9544 3.33786 68.1297 3.18191C68.305 3.02597 68.5427 2.93835 68.7906 2.93835H74.1365C74.3844 2.93835 74.6221 3.02597 74.7974 3.18191C74.9727 3.33786 75.0712 3.54936 75.0712 3.76991V7.98988C75.0712 8.21042 74.9727 8.42193 74.7974 8.57788C74.6221 8.73383 74.3844 8.82143 74.1365 8.82143H68.8081C68.5602 8.82143 68.3225 8.73383 68.1472 8.57788C67.9719 8.42193 67.8734 8.21042 67.8734 7.98988L67.856 3.76991ZM72.7607 10.4379C73.0086 10.4379 73.2464 10.5255 73.4217 10.6815C73.5969 10.8374 73.6954 11.0489 73.6954 11.2695V15.4894C73.6954 15.71 73.5969 15.9215 73.4217 16.0775C73.2464 16.2334 73.0086 16.321 72.7607 16.321H67.4323C67.1844 16.321 66.9467 16.2334 66.7714 16.0775C66.5961 15.9215 66.4977 15.71 66.4977 15.4894V11.2695C66.4977 11.0489 66.5961 10.8374 66.7714 10.6815C66.9467 10.5255 67.1844 10.4379 67.4323 10.4379H72.7607ZM59.7235 3.76991C59.7235 3.54936 59.822 3.33786 59.9973 3.18191C60.1726 3.02597 60.4103 2.93835 60.6582 2.93835H65.9866C66.2345 2.93835 66.4723 3.02597 66.6475 3.18191C66.8228 3.33786 66.9213 3.54936 66.9213 3.76991V7.98988C66.9213 8.21042 66.8228 8.42193 66.6475 8.57788C66.4723 8.73383 66.2345 8.82143 65.9866 8.82143H60.6582C60.4103 8.82143 60.1726 8.73383 59.9973 8.57788C59.822 8.42193 59.7235 8.21042 59.7235 7.98988V3.76991ZM64.1785 10.4379C64.4264 10.4379 64.6641 10.5255 64.8394 10.6815C65.0146 10.8374 65.1131 11.0489 65.1131 11.2695V15.4894C65.1131 15.71 65.0146 15.9215 64.8394 16.0775C64.6641 16.2334 64.4264 16.321 64.1785 16.321H58.85C58.6021 16.321 58.3644 16.2334 58.1891 16.0775C58.0138 15.9215 57.9154 15.71 57.9154 15.4894V11.2695C57.9154 11.0489 58.0138 10.8374 58.1891 10.6815C58.3644 10.5255 58.6021 10.4379 58.85 10.4379H64.1785ZM26.9493 18.7691C26.9493 18.5485 27.0478 18.337 27.223 18.1811C27.3983 18.0251 27.6361 17.9375 27.884 17.9375H33.208C33.4559 17.9375 33.6936 18.0251 33.8689 18.1811C34.0442 18.337 34.1427 18.5485 34.1427 18.7691V22.9851C34.1427 23.2057 34.0442 23.4172 33.8689 23.5731C33.6936 23.7291 33.4559 23.8167 33.208 23.8167H27.8708C27.623 23.8167 27.3852 23.7291 27.2099 23.5731C27.0347 23.4172 26.9362 23.2057 26.9362 22.9851L26.9493 18.7691ZM24.4816 16.321C24.2337 16.321 23.996 16.2334 23.8207 16.0775C23.6454 15.9215 23.547 15.71 23.547 15.4894V11.2695C23.547 11.0489 23.6454 10.8374 23.8207 10.6815C23.996 10.5255 24.2337 10.4379 24.4816 10.4379H29.8057C30.0536 10.4379 30.2913 10.5255 30.4666 10.6815C30.6419 10.8374 30.7403 11.0489 30.7403 11.2695V15.4894C30.7403 15.71 30.6419 15.9215 30.4666 16.0775C30.2913 16.2334 30.0536 16.321 29.8057 16.321H24.4816ZM33.0726 16.321C32.8247 16.321 32.587 16.2334 32.4117 16.0775C32.2364 15.9215 32.138 15.71 32.138 15.4894V11.2695C32.138 11.0489 32.2364 10.8374 32.4117 10.6815C32.587 10.5255 32.8247 10.4379 33.0726 10.4379H38.4011C38.6489 10.4379 38.8867 10.5255 39.062 10.6815C39.2372 10.8374 39.3357 11.0489 39.3357 11.2695V15.4894C39.3357 15.71 39.2372 15.9215 39.062 16.0775C38.8867 16.2334 38.6489 16.321 38.4011 16.321H33.0726ZM35.5403 18.7691C35.5403 18.5485 35.6388 18.337 35.8141 18.1811C35.9893 18.0251 36.2271 17.9375 36.475 17.9375H41.799C42.0469 17.9375 42.2847 18.0251 42.4599 18.1811C42.6352 18.337 42.7337 18.5485 42.7337 18.7691V22.9851C42.7337 23.2057 42.6352 23.4172 42.4599 23.5731C42.2847 23.7291 42.0469 23.8167 41.799 23.8167H36.4619C36.214 23.8167 35.9762 23.7291 35.801 23.5731C35.6257 23.4172 35.5272 23.2057 35.5272 22.9851L35.5403 18.7691ZM41.6549 16.321C41.407 16.321 41.1693 16.2334 40.994 16.0775C40.8187 15.9215 40.7202 15.71 40.7202 15.4894V11.2695C40.7202 11.0489 40.8187 10.8374 40.994 10.6815C41.1693 10.5255 41.407 10.4379 41.6549 10.4379H46.979C47.2269 10.4379 47.4646 10.5255 47.6399 10.6815C47.8152 10.8374 47.9136 11.0489 47.9136 11.2695V15.4894C47.9136 15.71 47.8152 15.9215 47.6399 16.0775C47.4646 16.2334 47.2269 16.321 46.979 16.321H41.6549ZM44.1226 18.7691C44.1226 18.5485 44.2211 18.337 44.3963 18.1811C44.5716 18.0251 44.8094 17.9375 45.0572 17.9375H50.3813C50.6292 17.9375 50.8669 18.0251 51.0422 18.1811C51.2175 18.337 51.316 18.5485 51.316 18.7691V22.9851C51.316 23.2057 51.2175 23.4172 51.0422 23.5731C50.8669 23.7291 50.6292 23.8167 50.3813 23.8167H45.0572C44.8094 23.8167 44.5716 23.7291 44.3963 23.5731C44.2211 23.4172 44.1226 23.2057 44.1226 22.9851V18.7691ZM50.2372 16.321C49.9893 16.321 49.7516 16.2334 49.5763 16.0775C49.401 15.9215 49.3025 15.71 49.3025 15.4894V11.2695C49.3025 11.0489 49.401 10.8374 49.5763 10.6815C49.7516 10.5255 49.9893 10.4379 50.2372 10.4379H55.5656C55.8135 10.4379 56.0512 10.5255 56.2265 10.6815C56.4018 10.8374 56.5003 11.0489 56.5003 11.2695V15.4894C56.5003 15.71 56.4018 15.9215 56.2265 16.0775C56.0512 16.2334 55.8135 16.321 55.5656 16.321H50.2372ZM52.7049 18.7691C52.7049 18.5485 52.8033 18.337 52.9786 18.1811C53.1539 18.0251 53.3916 17.9375 53.6395 17.9375H58.9679C59.2158 17.9375 59.4536 18.0251 59.6289 18.1811C59.8041 18.337 59.9026 18.5485 59.9026 18.7691V22.9851C59.9026 23.2057 59.8041 23.4172 59.6289 23.5731C59.4536 23.7291 59.2158 23.8167 58.9679 23.8167H53.6395C53.397 23.8096 53.167 23.7189 52.9983 23.5637C52.8296 23.4085 52.7353 23.201 52.7354 22.9851L52.7049 18.7691ZM51.5562 3.76991C51.5562 3.54936 51.6547 3.33786 51.8299 3.18191C52.0052 3.02597 52.243 2.93835 52.4908 2.93835H57.8193C58.0672 2.93835 58.3049 3.02597 58.4802 3.18191C58.6555 3.33786 58.7539 3.54936 58.7539 3.76991V7.98988C58.7539 8.21042 58.6555 8.42193 58.4802 8.57788C58.3049 8.73383 58.0672 8.82143 57.8193 8.82143H52.4908C52.243 8.82143 52.0052 8.73383 51.8299 8.57788C51.6547 8.42193 51.5562 8.21042 51.5562 7.98988V3.76991ZM43.415 3.76991C43.415 3.54936 43.5135 3.33786 43.6888 3.18191C43.8641 3.02597 44.1018 2.93835 44.3497 2.93835H49.6781C49.926 2.93835 50.1638 3.02597 50.339 3.18191C50.5143 3.33786 50.6128 3.54936 50.6128 3.76991V7.98988C50.6128 8.21042 50.5143 8.42193 50.339 8.57788C50.1638 8.73383 49.926 8.82143 49.6781 8.82143H44.3584C44.1105 8.82143 43.8728 8.73383 43.6975 8.57788C43.5222 8.42193 43.4238 8.21042 43.4238 7.98988L43.415 3.76991ZM35.2695 3.76991C35.2695 3.54936 35.368 3.33786 35.5433 3.18191C35.7185 3.02597 35.9563 2.93835 36.2042 2.93835H41.5282C41.7761 2.93835 42.0139 3.02597 42.1891 3.18191C42.3644 3.33786 42.4629 3.54936 42.4629 3.76991V7.98988C42.4629 8.21042 42.3644 8.42193 42.1891 8.57788C42.0139 8.73383 41.7761 8.82143 41.5282 8.82143H36.2129C35.965 8.82143 35.7273 8.73383 35.552 8.57788C35.3767 8.42193 35.2782 8.21042 35.2782 7.98988L35.2695 3.76991ZM27.124 3.76991C27.124 3.54936 27.2225 3.33786 27.3977 3.18191C27.573 3.02597 27.8108 2.93835 28.0587 2.93835H33.3827C33.6306 2.93835 33.8683 3.02597 34.0436 3.18191C34.2189 3.33786 34.3174 3.54936 34.3174 3.76991V7.98988C34.3174 8.21042 34.2189 8.42193 34.0436 8.57788C33.8683 8.73383 33.6306 8.82143 33.3827 8.82143H28.0674C27.8195 8.82143 27.5818 8.73383 27.4065 8.57788C27.2312 8.42193 27.1327 8.21042 27.1327 7.98988L27.124 3.76991ZM18.9785 3.76991C18.9785 3.54936 19.0769 3.33786 19.2522 3.18191C19.4275 3.02597 19.6652 2.93835 19.9131 2.93835H25.2372C25.4851 2.93835 25.7228 3.02597 25.8981 3.18191C26.0734 3.33786 26.1719 3.54936 26.1719 3.76991V7.98988C26.1719 8.21042 26.0734 8.42193 25.8981 8.57788C25.7228 8.73383 25.4851 8.82143 25.2372 8.82143H19.9219C19.674 8.82143 19.4362 8.73383 19.261 8.57788C19.0857 8.42193 18.9872 8.21042 18.9872 7.98988L18.9785 3.76991ZM22.1275 11.2695V15.4894C22.1275 15.71 22.029 15.9215 21.8537 16.0775C21.6785 16.2334 21.4407 16.321 21.1928 16.321H15.8731C15.6252 16.321 15.3875 16.2334 15.2122 16.0775C15.0369 15.9215 14.9385 15.71 14.9385 15.4894V11.2695C14.9385 11.0489 15.0369 10.8374 15.2122 10.6815C15.3875 10.5255 15.6252 10.4379 15.8731 10.4379H21.2016C21.4494 10.4379 21.6872 10.5255 21.8625 10.6815C22.0378 10.8374 22.1362 11.0489 22.1362 11.2695H22.1275ZM10.833 3.76991C10.833 3.54936 10.9314 3.33786 11.1067 3.18191C11.282 3.02597 11.5197 2.93835 11.7676 2.93835H17.0917C17.3396 2.93835 17.5773 3.02597 17.7526 3.18191C17.9279 3.33786 18.0263 3.54936 18.0263 3.76991V7.98988C18.0263 8.21042 17.9279 8.42193 17.7526 8.57788C17.5773 8.73383 17.3396 8.82143 17.0917 8.82143H11.7763C11.5285 8.82143 11.2907 8.73383 11.1154 8.57788C10.9402 8.42193 10.8417 8.21042 10.8417 7.98988L10.833 3.76991ZM2.68744 3.76991C2.68744 3.54936 2.78591 3.33786 2.96119 3.18191C3.13647 3.02597 3.37421 2.93835 3.6221 2.93835H8.94617C9.19405 2.93835 9.43178 3.02597 9.60707 3.18191C9.78235 3.33786 9.88083 3.54936 9.88083 3.76991V7.98988C9.88083 8.21042 9.78235 8.42193 9.60707 8.57788C9.43178 8.73383 9.19405 8.82143 8.94617 8.82143H3.63083C3.38294 8.82143 3.14521 8.73383 2.96993 8.57788C2.79464 8.42193 2.69617 8.21042 2.69617 7.98988L2.68744 3.76991ZM2.68744 11.2695C2.68744 11.0489 2.78591 10.8374 2.96119 10.6815C3.13647 10.5255 3.37421 10.4379 3.6221 10.4379H12.5538C12.8017 10.4379 13.0394 10.5255 13.2147 10.6815C13.39 10.8374 13.4884 11.0489 13.4884 11.2695V15.4894C13.4884 15.71 13.39 15.9215 13.2147 16.0775C13.0394 16.2334 12.8017 16.321 12.5538 16.321H3.63083C3.38294 16.321 3.14521 16.2334 2.96993 16.0775C2.79464 15.9215 2.69617 15.71 2.69617 15.4894L2.68744 11.2695ZM16.9345 30.4886C16.9345 30.7091 16.836 30.9207 16.6607 31.0766C16.4854 31.2325 16.2477 31.3202 15.9998 31.3202H3.63083C3.38294 31.3202 3.14521 31.2325 2.96993 31.0766C2.79464 30.9207 2.69617 30.7091 2.69617 30.4886V26.2686C2.69617 26.0481 2.79464 25.8366 2.96993 25.6806C3.14521 25.5247 3.38294 25.4371 3.63083 25.4371H16.0085C16.2564 25.4371 16.4941 25.5247 16.6694 25.6806C16.8447 25.8366 16.9432 26.0481 16.9432 26.2686L16.9345 30.4886ZM16.9345 22.989C16.9345 23.2096 16.836 23.4211 16.6607 23.577C16.4854 23.733 16.2477 23.8206 15.9998 23.8206H3.63083C3.38294 23.8206 3.14521 23.733 2.96993 23.577C2.79464 23.4211 2.69617 23.2096 2.69617 22.989V18.7691C2.69617 18.5485 2.79464 18.337 2.96993 18.1811C3.14521 18.0251 3.38294 17.9375 3.63083 17.9375H16.0085C16.2564 17.9375 16.4941 18.0251 16.6694 18.1811C16.8447 18.337 16.9432 18.5485 16.9432 18.7691L16.9345 22.989ZM18.3321 18.7691C18.3321 18.5485 18.4305 18.337 18.6058 18.1811C18.7811 18.0251 19.0188 17.9375 19.2667 17.9375H24.5908C24.8387 17.9375 25.0764 18.0251 25.2517 18.1811C25.427 18.337 25.5255 18.5485 25.5255 18.7691V22.9851C25.5255 23.2057 25.427 23.4172 25.2517 23.5731C25.0764 23.7291 24.8387 23.8167 24.5908 23.8167H19.2755C19.0276 23.8167 18.7899 23.7291 18.6146 23.5731C18.4393 23.4172 18.3408 23.2057 18.3408 22.9851L18.3321 18.7691ZM67.8472 30.4886C67.8472 30.7091 67.7487 30.9207 67.5735 31.0766C67.3982 31.2325 67.1604 31.3202 66.9126 31.3202H19.472C19.2241 31.3202 18.9864 31.2325 18.8111 31.0766C18.6358 30.9207 18.5374 30.7091 18.5374 30.4886V26.2686C18.5374 26.0481 18.6358 25.8366 18.8111 25.6806C18.9864 25.5247 19.2241 25.4371 19.472 25.4371H66.9213C67.1692 25.4371 67.4069 25.5247 67.5822 25.6806C67.7575 25.8366 67.856 26.0481 67.856 26.2686L67.8472 30.4886ZM68.5024 22.9851C68.5024 23.2057 68.4039 23.4172 68.2286 23.5731C68.0533 23.7291 67.8156 23.8167 67.5677 23.8167H62.2436C61.9957 23.8167 61.758 23.7291 61.5827 23.5731C61.4074 23.4172 61.309 23.2057 61.309 22.9851V18.7691C61.309 18.5485 61.4074 18.337 61.5827 18.1811C61.758 18.0251 61.9957 17.9375 62.2436 17.9375H67.5852C67.8331 17.9375 68.0708 18.0251 68.2461 18.1811C68.4214 18.337 68.5198 18.5485 68.5198 18.7691L68.5024 22.9851ZM83.9461 30.4847C83.9461 30.7052 83.8476 30.9168 83.6723 31.0727C83.4971 31.2287 83.2593 31.3163 83.0114 31.3163H70.4197C70.1718 31.3163 69.9341 31.2287 69.7588 31.0727C69.5835 30.9168 69.4851 30.7052 69.4851 30.4847V26.2686C69.4851 26.0481 69.5835 25.8366 69.7588 25.6806C69.9341 25.5247 70.1718 25.4371 70.4197 25.4371H83.0114C83.2593 25.4371 83.4971 25.5247 83.6723 25.6806C83.8476 25.8366 83.9461 26.0481 83.9461 26.2686V30.4847ZM83.9461 22.9851C83.9461 23.2057 83.8476 23.4172 83.6723 23.5731C83.4971 23.7291 83.2593 23.8167 83.0114 23.8167H70.8346C70.5868 23.8167 70.349 23.7291 70.1737 23.5731C69.9985 23.4172 69.9 23.2057 69.9 22.9851V18.7691C69.9 18.5485 69.9985 18.337 70.1737 18.1811C70.349 18.0251 70.5868 17.9375 70.8346 17.9375H83.0114C83.2593 17.9375 83.4971 18.0251 83.6723 18.1811C83.8476 18.337 83.9461 18.5485 83.9461 18.7691V22.9851ZM83.9461 15.4856C83.9461 15.7061 83.8476 15.9176 83.6723 16.0736C83.4971 16.2295 83.2593 16.3171 83.0114 16.3171H76.0233C75.7754 16.3171 75.5377 16.2295 75.3624 16.0736C75.1871 15.9176 75.0887 15.7061 75.0887 15.4856V11.2695C75.0887 11.0489 75.1871 10.8374 75.3624 10.6815C75.5377 10.5255 75.7754 10.4379 76.0233 10.4379H83.0114C83.2593 10.4379 83.4971 10.5255 83.6723 10.6815C83.8476 10.8374 83.9461 11.0489 83.9461 11.2695V15.4856ZM83.9461 7.98599C83.9461 8.20653 83.8476 8.41805 83.6723 8.57399C83.4971 8.72994 83.2593 8.81755 83.0114 8.81755H76.9361C76.6883 8.81755 76.4505 8.72994 76.2752 8.57399C76.1 8.41805 76.0015 8.20653 76.0015 7.98599V3.76991C76.0015 3.54936 76.1 3.33786 76.2752 3.18191C76.4505 3.02597 76.6883 2.93835 76.9361 2.93835H83.0114C83.2593 2.93835 83.4971 3.02597 83.6723 3.18191C83.8476 3.33786 83.9461 3.54936 83.9461 3.76991V7.98599Z" fill="white"/>
</g>
<g clip-path="url(#clip1_96_75)">
<path opacity="0.53" d="M83.9402 0H0.956388C0.708501 0 0.470771 0.0876139 0.295488 0.243561C0.120205 0.399509 0.0217285 0.61101 0.0217285 0.831553V33.2934C0.0217285 33.514 0.120205 33.7255 0.295488 33.8814C0.470771 34.0374 0.708501 34.125 0.956388 34.125H83.9402C84.1881 34.125 84.4258 34.0374 84.6011 33.8814C84.7764 33.7255 84.8749 33.514 84.8749 33.2934V0.831553C84.8749 0.61101 84.7764 0.399509 84.6011 0.243561C84.4258 0.0876139 84.1881 0 83.9402 0ZM66.981 2.89491C66.981 2.67436 67.0794 2.46286 67.2547 2.30691C67.43 2.15097 67.6677 2.06335 67.9156 2.06335H73.2615C73.5094 2.06335 73.7471 2.15097 73.9224 2.30691C74.0977 2.46286 74.1962 2.67436 74.1962 2.89491V7.11488C74.1962 7.33542 74.0977 7.54693 73.9224 7.70288C73.7471 7.85883 73.5094 7.94643 73.2615 7.94643H67.9331C67.6852 7.94643 67.4475 7.85883 67.2722 7.70288C67.0969 7.54693 66.9984 7.33542 66.9984 7.11488L66.981 2.89491ZM71.8857 9.56292C72.1336 9.56292 72.3714 9.65054 72.5467 9.80648C72.7219 9.96243 72.8204 10.1739 72.8204 10.3945V14.6144C72.8204 14.835 72.7219 15.0465 72.5467 15.2025C72.3714 15.3584 72.1336 15.446 71.8857 15.446H66.5573C66.3094 15.446 66.0717 15.3584 65.8964 15.2025C65.7211 15.0465 65.6227 14.835 65.6227 14.6144V10.3945C65.6227 10.1739 65.7211 9.96243 65.8964 9.80648C66.0717 9.65054 66.3094 9.56292 66.5573 9.56292H71.8857ZM58.8485 2.89491C58.8485 2.67436 58.947 2.46286 59.1223 2.30691C59.2976 2.15097 59.5353 2.06335 59.7832 2.06335H65.1116C65.3595 2.06335 65.5973 2.15097 65.7725 2.30691C65.9478 2.46286 66.0463 2.67436 66.0463 2.89491V7.11488C66.0463 7.33542 65.9478 7.54693 65.7725 7.70288C65.5973 7.85883 65.3595 7.94643 65.1116 7.94643H59.7832C59.5353 7.94643 59.2976 7.85883 59.1223 7.70288C58.947 7.54693 58.8485 7.33542 58.8485 7.11488V2.89491ZM63.3035 9.56292C63.5514 9.56292 63.7891 9.65054 63.9644 9.80648C64.1396 9.96243 64.2381 10.1739 64.2381 10.3945V14.6144C64.2381 14.835 64.1396 15.0465 63.9644 15.2025C63.7891 15.3584 63.5514 15.446 63.3035 15.446H57.975C57.7271 15.446 57.4894 15.3584 57.3141 15.2025C57.1388 15.0465 57.0404 14.835 57.0404 14.6144V10.3945C57.0404 10.1739 57.1388 9.96243 57.3141 9.80648C57.4894 9.65054 57.7271 9.56292 57.975 9.56292H63.3035ZM26.0743 17.8941C26.0743 17.6735 26.1728 17.462 26.348 17.3061C26.5233 17.1501 26.7611 17.0625 27.009 17.0625H32.333C32.5809 17.0625 32.8186 17.1501 32.9939 17.3061C33.1692 17.462 33.2677 17.6735 33.2677 17.8941V22.1101C33.2677 22.3307 33.1692 22.5422 32.9939 22.6981C32.8186 22.8541 32.5809 22.9417 32.333 22.9417H26.9958C26.748 22.9417 26.5102 22.8541 26.3349 22.6981C26.1597 22.5422 26.0612 22.3307 26.0612 22.1101L26.0743 17.8941ZM23.6066 15.446C23.3587 15.446 23.121 15.3584 22.9457 15.2025C22.7704 15.0465 22.672 14.835 22.672 14.6144V10.3945C22.672 10.1739 22.7704 9.96243 22.9457 9.80648C23.121 9.65054 23.3587 9.56292 23.6066 9.56292H28.9307C29.1786 9.56292 29.4163 9.65054 29.5916 9.80648C29.7669 9.96243 29.8653 10.1739 29.8653 10.3945V14.6144C29.8653 14.835 29.7669 15.0465 29.5916 15.2025C29.4163 15.3584 29.1786 15.446 28.9307 15.446H23.6066ZM32.1976 15.446C31.9497 15.446 31.712 15.3584 31.5367 15.2025C31.3614 15.0465 31.263 14.835 31.263 14.6144V10.3945C31.263 10.1739 31.3614 9.96243 31.5367 9.80648C31.712 9.65054 31.9497 9.56292 32.1976 9.56292H37.5261C37.7739 9.56292 38.0117 9.65054 38.187 9.80648C38.3622 9.96243 38.4607 10.1739 38.4607 10.3945V14.6144C38.4607 14.835 38.3622 15.0465 38.187 15.2025C38.0117 15.3584 37.7739 15.446 37.5261 15.446H32.1976ZM34.6653 17.8941C34.6653 17.6735 34.7638 17.462 34.9391 17.3061C35.1143 17.1501 35.3521 17.0625 35.6 17.0625H40.924C41.1719 17.0625 41.4097 17.1501 41.5849 17.3061C41.7602 17.462 41.8587 17.6735 41.8587 17.8941V22.1101C41.8587 22.3307 41.7602 22.5422 41.5849 22.6981C41.4097 22.8541 41.1719 22.9417 40.924 22.9417H35.5869C35.339 22.9417 35.1012 22.8541 34.926 22.6981C34.7507 22.5422 34.6522 22.3307 34.6522 22.1101L34.6653 17.8941ZM40.7799 15.446C40.532 15.446 40.2943 15.3584 40.119 15.2025C39.9437 15.0465 39.8452 14.835 39.8452 14.6144V10.3945C39.8452 10.1739 39.9437 9.96243 40.119 9.80648C40.2943 9.65054 40.532 9.56292 40.7799 9.56292H46.104C46.3519 9.56292 46.5896 9.65054 46.7649 9.80648C46.9402 9.96243 47.0386 10.1739 47.0386 10.3945V14.6144C47.0386 14.835 46.9402 15.0465 46.7649 15.2025C46.5896 15.3584 46.3519 15.446 46.104 15.446H40.7799ZM43.2476 17.8941C43.2476 17.6735 43.3461 17.462 43.5213 17.3061C43.6966 17.1501 43.9344 17.0625 44.1822 17.0625H49.5063C49.7542 17.0625 49.9919 17.1501 50.1672 17.3061C50.3425 17.462 50.441 17.6735 50.441 17.8941V22.1101C50.441 22.3307 50.3425 22.5422 50.1672 22.6981C49.9919 22.8541 49.7542 22.9417 49.5063 22.9417H44.1822C43.9344 22.9417 43.6966 22.8541 43.5213 22.6981C43.3461 22.5422 43.2476 22.3307 43.2476 22.1101V17.8941ZM49.3622 15.446C49.1143 15.446 48.8766 15.3584 48.7013 15.2025C48.526 15.0465 48.4275 14.835 48.4275 14.6144V10.3945C48.4275 10.1739 48.526 9.96243 48.7013 9.80648C48.8766 9.65054 49.1143 9.56292 49.3622 9.56292H54.6906C54.9385 9.56292 55.1762 9.65054 55.3515 9.80648C55.5268 9.96243 55.6253 10.1739 55.6253 10.3945V14.6144C55.6253 14.835 55.5268 15.0465 55.3515 15.2025C55.1762 15.3584 54.9385 15.446 54.6906 15.446H49.3622ZM51.8299 17.8941C51.8299 17.6735 51.9283 17.462 52.1036 17.3061C52.2789 17.1501 52.5166 17.0625 52.7645 17.0625H58.0929C58.3408 17.0625 58.5786 17.1501 58.7539 17.3061C58.9291 17.462 59.0276 17.6735 59.0276 17.8941V22.1101C59.0276 22.3307 58.9291 22.5422 58.7539 22.6981C58.5786 22.8541 58.3408 22.9417 58.0929 22.9417H52.7645C52.522 22.9346 52.292 22.8439 52.1233 22.6887C51.9546 22.5335 51.8603 22.326 51.8604 22.1101L51.8299 17.8941ZM50.6812 2.89491C50.6812 2.67436 50.7797 2.46286 50.9549 2.30691C51.1302 2.15097 51.368 2.06335 51.6158 2.06335H56.9443C57.1922 2.06335 57.4299 2.15097 57.6052 2.30691C57.7805 2.46286 57.8789 2.67436 57.8789 2.89491V7.11488C57.8789 7.33542 57.7805 7.54693 57.6052 7.70288C57.4299 7.85883 57.1922 7.94643 56.9443 7.94643H51.6158C51.368 7.94643 51.1302 7.85883 50.9549 7.70288C50.7797 7.54693 50.6812 7.33542 50.6812 7.11488V2.89491ZM42.54 2.89491C42.54 2.67436 42.6385 2.46286 42.8138 2.30691C42.9891 2.15097 43.2268 2.06335 43.4747 2.06335H48.8031C49.051 2.06335 49.2888 2.15097 49.464 2.30691C49.6393 2.46286 49.7378 2.67436 49.7378 2.89491V7.11488C49.7378 7.33542 49.6393 7.54693 49.464 7.70288C49.2888 7.85883 49.051 7.94643 48.8031 7.94643H43.4834C43.2355 7.94643 42.9978 7.85883 42.8225 7.70288C42.6472 7.54693 42.5488 7.33542 42.5488 7.11488L42.54 2.89491ZM34.3945 2.89491C34.3945 2.67436 34.493 2.46286 34.6683 2.30691C34.8435 2.15097 35.0813 2.06335 35.3292 2.06335H40.6532C40.9011 2.06335 41.1389 2.15097 41.3141 2.30691C41.4894 2.46286 41.5879 2.67436 41.5879 2.89491V7.11488C41.5879 7.33542 41.4894 7.54693 41.3141 7.70288C41.1389 7.85883 40.9011 7.94643 40.6532 7.94643H35.3379C35.09 7.94643 34.8523 7.85883 34.677 7.70288C34.5017 7.54693 34.4032 7.33542 34.4032 7.11488L34.3945 2.89491ZM26.249 2.89491C26.249 2.67436 26.3475 2.46286 26.5227 2.30691C26.698 2.15097 26.9358 2.06335 27.1837 2.06335H32.5077C32.7556 2.06335 32.9933 2.15097 33.1686 2.30691C33.3439 2.46286 33.4424 2.67436 33.4424 2.89491V7.11488C33.4424 7.33542 33.3439 7.54693 33.1686 7.70288C32.9933 7.85883 32.7556 7.94643 32.5077 7.94643H27.1924C26.9445 7.94643 26.7068 7.85883 26.5315 7.70288C26.3562 7.54693 26.2577 7.33542 26.2577 7.11488L26.249 2.89491ZM18.1035 2.89491C18.1035 2.67436 18.2019 2.46286 18.3772 2.30691C18.5525 2.15097 18.7902 2.06335 19.0381 2.06335H24.3622C24.6101 2.06335 24.8478 2.15097 25.0231 2.30691C25.1984 2.46286 25.2969 2.67436 25.2969 2.89491V7.11488C25.2969 7.33542 25.1984 7.54693 25.0231 7.70288C24.8478 7.85883 24.6101 7.94643 24.3622 7.94643H19.0469C18.799 7.94643 18.5612 7.85883 18.386 7.70288C18.2107 7.54693 18.1122 7.33542 18.1122 7.11488L18.1035 2.89491ZM21.2525 10.3945V14.6144C21.2525 14.835 21.154 15.0465 20.9787 15.2025C20.8035 15.3584 20.5657 15.446 20.3178 15.446H14.9981C14.7502 15.446 14.5125 15.3584 14.3372 15.2025C14.1619 15.0465 14.0635 14.835 14.0635 14.6144V10.3945C14.0635 10.1739 14.1619 9.96243 14.3372 9.80648C14.5125 9.65054 14.7502 9.56292 14.9981 9.56292H20.3266C20.5744 9.56292 20.8122 9.65054 20.9875 9.80648C21.1628 9.96243 21.2612 10.1739 21.2612 10.3945H21.2525ZM9.95795 2.89491C9.95795 2.67436 10.0564 2.46286 10.2317 2.30691C10.407 2.15097 10.6447 2.06335 10.8926 2.06335H16.2167C16.4646 2.06335 16.7023 2.15097 16.8776 2.30691C17.0529 2.46286 17.1513 2.67436 17.1513 2.89491V7.11488C17.1513 7.33542 17.0529 7.54693 16.8776 7.70288C16.7023 7.85883 16.4646 7.94643 16.2167 7.94643H10.9013C10.6535 7.94643 10.4157 7.85883 10.2404 7.70288C10.0652 7.54693 9.96669 7.33542 9.96669 7.11488L9.95795 2.89491ZM1.81244 2.89491C1.81244 2.67436 1.91091 2.46286 2.08619 2.30691C2.26147 2.15097 2.49921 2.06335 2.7471 2.06335H8.07117C8.31905 2.06335 8.55678 2.15097 8.73207 2.30691C8.90735 2.46286 9.00583 2.67436 9.00583 2.89491V7.11488C9.00583 7.33542 8.90735 7.54693 8.73207 7.70288C8.55678 7.85883 8.31905 7.94643 8.07117 7.94643H2.75583C2.50794 7.94643 2.27021 7.85883 2.09493 7.70288C1.91964 7.54693 1.82117 7.33542 1.82117 7.11488L1.81244 2.89491ZM1.81244 10.3945C1.81244 10.1739 1.91091 9.96243 2.08619 9.80648C2.26147 9.65054 2.49921 9.56292 2.7471 9.56292H11.6788C11.9267 9.56292 12.1644 9.65054 12.3397 9.80648C12.515 9.96243 12.6134 10.1739 12.6134 10.3945V14.6144C12.6134 14.835 12.515 15.0465 12.3397 15.2025C12.1644 15.3584 11.9267 15.446 11.6788 15.446H2.75583C2.50794 15.446 2.27021 15.3584 2.09493 15.2025C1.91964 15.0465 1.82117 14.835 1.82117 14.6144L1.81244 10.3945ZM16.0595 29.6136C16.0595 29.8341 15.961 30.0457 15.7857 30.2016C15.6104 30.3575 15.3727 30.4452 15.1248 30.4452H2.75583C2.50794 30.4452 2.27021 30.3575 2.09493 30.2016C1.91964 30.0457 1.82117 29.8341 1.82117 29.6136V25.3936C1.82117 25.1731 1.91964 24.9616 2.09493 24.8056C2.27021 24.6497 2.50794 24.5621 2.75583 24.5621H15.1335C15.3814 24.5621 15.6191 24.6497 15.7944 24.8056C15.9697 24.9616 16.0682 25.1731 16.0682 25.3936L16.0595 29.6136ZM16.0595 22.114C16.0595 22.3346 15.961 22.5461 15.7857 22.702C15.6104 22.858 15.3727 22.9456 15.1248 22.9456H2.75583C2.50794 22.9456 2.27021 22.858 2.09493 22.702C1.91964 22.5461 1.82117 22.3346 1.82117 22.114V17.8941C1.82117 17.6735 1.91964 17.462 2.09493 17.3061C2.27021 17.1501 2.50794 17.0625 2.75583 17.0625H15.1335C15.3814 17.0625 15.6191 17.1501 15.7944 17.3061C15.9697 17.462 16.0682 17.6735 16.0682 17.8941L16.0595 22.114ZM17.4571 17.8941C17.4571 17.6735 17.5555 17.462 17.7308 17.3061C17.9061 17.1501 18.1438 17.0625 18.3917 17.0625H23.7158C23.9637 17.0625 24.2014 17.1501 24.3767 17.3061C24.552 17.462 24.6505 17.6735 24.6505 17.8941V22.1101C24.6505 22.3307 24.552 22.5422 24.3767 22.6981C24.2014 22.8541 23.9637 22.9417 23.7158 22.9417H18.4005C18.1526 22.9417 17.9149 22.8541 17.7396 22.6981C17.5643 22.5422 17.4658 22.3307 17.4658 22.1101L17.4571 17.8941ZM66.9722 29.6136C66.9722 29.8341 66.8737 30.0457 66.6985 30.2016C66.5232 30.3575 66.2854 30.4452 66.0376 30.4452H18.597C18.3491 30.4452 18.1114 30.3575 17.9361 30.2016C17.7608 30.0457 17.6624 29.8341 17.6624 29.6136V25.3936C17.6624 25.1731 17.7608 24.9616 17.9361 24.8056C18.1114 24.6497 18.3491 24.5621 18.597 24.5621H66.0463C66.2942 24.5621 66.5319 24.6497 66.7072 24.8056C66.8825 24.9616 66.981 25.1731 66.981 25.3936L66.9722 29.6136ZM67.6274 22.1101C67.6274 22.3307 67.5289 22.5422 67.3536 22.6981C67.1783 22.8541 66.9406 22.9417 66.6927 22.9417H61.3686C61.1207 22.9417 60.883 22.8541 60.7077 22.6981C60.5324 22.5422 60.434 22.3307 60.434 22.1101V17.8941C60.434 17.6735 60.5324 17.462 60.7077 17.3061C60.883 17.1501 61.1207 17.0625 61.3686 17.0625H66.7102C66.9581 17.0625 67.1958 17.1501 67.3711 17.3061C67.5464 17.462 67.6448 17.6735 67.6448 17.8941L67.6274 22.1101ZM83.0711 29.6097C83.0711 29.8302 82.9726 30.0418 82.7973 30.1977C82.6221 30.3537 82.3843 30.4413 82.1364 30.4413H69.5447C69.2968 30.4413 69.0591 30.3537 68.8838 30.1977C68.7085 30.0418 68.6101 29.8302 68.6101 29.6097V25.3936C68.6101 25.1731 68.7085 24.9616 68.8838 24.8056C69.0591 24.6497 69.2968 24.5621 69.5447 24.5621H82.1364C82.3843 24.5621 82.6221 24.6497 82.7973 24.8056C82.9726 24.9616 83.0711 25.1731 83.0711 25.3936V29.6097ZM83.0711 22.1101C83.0711 22.3307 82.9726 22.5422 82.7973 22.6981C82.6221 22.8541 82.3843 22.9417 82.1364 22.9417H69.9596C69.7118 22.9417 69.474 22.8541 69.2987 22.6981C69.1235 22.5422 69.025 22.3307 69.025 22.1101V17.8941C69.025 17.6735 69.1235 17.462 69.2987 17.3061C69.474 17.1501 69.7118 17.0625 69.9596 17.0625H82.1364C82.3843 17.0625 82.6221 17.1501 82.7973 17.3061C82.9726 17.462 83.0711 17.6735 83.0711 17.8941V22.1101ZM83.0711 14.6106C83.0711 14.8311 82.9726 15.0426 82.7973 15.1986C82.6221 15.3545 82.3843 15.4421 82.1364 15.4421H75.1483C74.9004 15.4421 74.6627 15.3545 74.4874 15.1986C74.3121 15.0426 74.2137 14.8311 74.2137 14.6106V10.3945C74.2137 10.1739 74.3121 9.96243 74.4874 9.80648C74.6627 9.65054 74.9004 9.56292 75.1483 9.56292H82.1364C82.3843 9.56292 82.6221 9.65054 82.7973 9.80648C82.9726 9.96243 83.0711 10.1739 83.0711 10.3945V14.6106ZM83.0711 7.11099C83.0711 7.33153 82.9726 7.54305 82.7973 7.69899C82.6221 7.85494 82.3843 7.94255 82.1364 7.94255H76.0611C75.8133 7.94255 75.5755 7.85494 75.4002 7.69899C75.225 7.54305 75.1265 7.33153 75.1265 7.11099V2.89491C75.1265 2.67436 75.225 2.46286 75.4002 2.30691C75.5755 2.15097 75.8133 2.06335 76.0611 2.06335H82.1364C82.3843 2.06335 82.6221 2.15097 82.7973 2.30691C82.9726 2.46286 83.0711 2.67436 83.0711 2.89491V7.11099Z" fill="url(#paint0_linear_96_75)"/>
</g>
<g clip-path="url(#clip2_96_75)">
<path opacity="0.53" d="M83.9402 0H0.956388C0.708501 0 0.470771 0.0876139 0.295488 0.243561C0.120205 0.399509 0.0217285 0.61101 0.0217285 0.831553V33.2934C0.0217285 33.514 0.120205 33.7255 0.295488 33.8814C0.470771 34.0374 0.708501 34.125 0.956388 34.125H83.9402C84.1881 34.125 84.4258 34.0374 84.6011 33.8814C84.7764 33.7255 84.8749 33.514 84.8749 33.2934V0.831553C84.8749 0.61101 84.7764 0.399509 84.6011 0.243561C84.4258 0.0876139 84.1881 0 83.9402 0ZM66.981 2.89491C66.981 2.67436 67.0794 2.46286 67.2547 2.30691C67.43 2.15097 67.6677 2.06335 67.9156 2.06335H73.2615C73.5094 2.06335 73.7471 2.15097 73.9224 2.30691C74.0977 2.46286 74.1962 2.67436 74.1962 2.89491V7.11488C74.1962 7.33542 74.0977 7.54693 73.9224 7.70288C73.7471 7.85883 73.5094 7.94643 73.2615 7.94643H67.9331C67.6852 7.94643 67.4475 7.85883 67.2722 7.70288C67.0969 7.54693 66.9984 7.33542 66.9984 7.11488L66.981 2.89491ZM71.8857 9.56292C72.1336 9.56292 72.3714 9.65054 72.5467 9.80648C72.7219 9.96243 72.8204 10.1739 72.8204 10.3945V14.6144C72.8204 14.835 72.7219 15.0465 72.5467 15.2025C72.3714 15.3584 72.1336 15.446 71.8857 15.446H66.5573C66.3094 15.446 66.0717 15.3584 65.8964 15.2025C65.7211 15.0465 65.6227 14.835 65.6227 14.6144V10.3945C65.6227 10.1739 65.7211 9.96243 65.8964 9.80648C66.0717 9.65054 66.3094 9.56292 66.5573 9.56292H71.8857ZM58.8485 2.89491C58.8485 2.67436 58.947 2.46286 59.1223 2.30691C59.2976 2.15097 59.5353 2.06335 59.7832 2.06335H65.1116C65.3595 2.06335 65.5973 2.15097 65.7725 2.30691C65.9478 2.46286 66.0463 2.67436 66.0463 2.89491V7.11488C66.0463 7.33542 65.9478 7.54693 65.7725 7.70288C65.5973 7.85883 65.3595 7.94643 65.1116 7.94643H59.7832C59.5353 7.94643 59.2976 7.85883 59.1223 7.70288C58.947 7.54693 58.8485 7.33542 58.8485 7.11488V2.89491ZM63.3035 9.56292C63.5514 9.56292 63.7891 9.65054 63.9644 9.80648C64.1396 9.96243 64.2381 10.1739 64.2381 10.3945V14.6144C64.2381 14.835 64.1396 15.0465 63.9644 15.2025C63.7891 15.3584 63.5514 15.446 63.3035 15.446H57.975C57.7271 15.446 57.4894 15.3584 57.3141 15.2025C57.1388 15.0465 57.0404 14.835 57.0404 14.6144V10.3945C57.0404 10.1739 57.1388 9.96243 57.3141 9.80648C57.4894 9.65054 57.7271 9.56292 57.975 9.56292H63.3035ZM26.0743 17.8941C26.0743 17.6735 26.1728 17.462 26.348 17.3061C26.5233 17.1501 26.7611 17.0625 27.009 17.0625H32.333C32.5809 17.0625 32.8186 17.1501 32.9939 17.3061C33.1692 17.462 33.2677 17.6735 33.2677 17.8941V22.1101C33.2677 22.3307 33.1692 22.5422 32.9939 22.6981C32.8186 22.8541 32.5809 22.9417 32.333 22.9417H26.9958C26.748 22.9417 26.5102 22.8541 26.3349 22.6981C26.1597 22.5422 26.0612 22.3307 26.0612 22.1101L26.0743 17.8941ZM23.6066 15.446C23.3587 15.446 23.121 15.3584 22.9457 15.2025C22.7704 15.0465 22.672 14.835 22.672 14.6144V10.3945C22.672 10.1739 22.7704 9.96243 22.9457 9.80648C23.121 9.65054 23.3587 9.56292 23.6066 9.56292H28.9307C29.1786 9.56292 29.4163 9.65054 29.5916 9.80648C29.7669 9.96243 29.8653 10.1739 29.8653 10.3945V14.6144C29.8653 14.835 29.7669 15.0465 29.5916 15.2025C29.4163 15.3584 29.1786 15.446 28.9307 15.446H23.6066ZM32.1976 15.446C31.9497 15.446 31.712 15.3584 31.5367 15.2025C31.3614 15.0465 31.263 14.835 31.263 14.6144V10.3945C31.263 10.1739 31.3614 9.96243 31.5367 9.80648C31.712 9.65054 31.9497 9.56292 32.1976 9.56292H37.5261C37.7739 9.56292 38.0117 9.65054 38.187 9.80648C38.3622 9.96243 38.4607 10.1739 38.4607 10.3945V14.6144C38.4607 14.835 38.3622 15.0465 38.187 15.2025C38.0117 15.3584 37.7739 15.446 37.5261 15.446H32.1976ZM34.6653 17.8941C34.6653 17.6735 34.7638 17.462 34.9391 17.3061C35.1143 17.1501 35.3521 17.0625 35.6 17.0625H40.924C41.1719 17.0625 41.4097 17.1501 41.5849 17.3061C41.7602 17.462 41.8587 17.6735 41.8587 17.8941V22.1101C41.8587 22.3307 41.7602 22.5422 41.5849 22.6981C41.4097 22.8541 41.1719 22.9417 40.924 22.9417H35.5869C35.339 22.9417 35.1012 22.8541 34.926 22.6981C34.7507 22.5422 34.6522 22.3307 34.6522 22.1101L34.6653 17.8941ZM40.7799 15.446C40.532 15.446 40.2943 15.3584 40.119 15.2025C39.9437 15.0465 39.8452 14.835 39.8452 14.6144V10.3945C39.8452 10.1739 39.9437 9.96243 40.119 9.80648C40.2943 9.65054 40.532 9.56292 40.7799 9.56292H46.104C46.3519 9.56292 46.5896 9.65054 46.7649 9.80648C46.9402 9.96243 47.0386 10.1739 47.0386 10.3945V14.6144C47.0386 14.835 46.9402 15.0465 46.7649 15.2025C46.5896 15.3584 46.3519 15.446 46.104 15.446H40.7799ZM43.2476 17.8941C43.2476 17.6735 43.3461 17.462 43.5213 17.3061C43.6966 17.1501 43.9344 17.0625 44.1822 17.0625H49.5063C49.7542 17.0625 49.9919 17.1501 50.1672 17.3061C50.3425 17.462 50.441 17.6735 50.441 17.8941V22.1101C50.441 22.3307 50.3425 22.5422 50.1672 22.6981C49.9919 22.8541 49.7542 22.9417 49.5063 22.9417H44.1822C43.9344 22.9417 43.6966 22.8541 43.5213 22.6981C43.3461 22.5422 43.2476 22.3307 43.2476 22.1101V17.8941ZM49.3622 15.446C49.1143 15.446 48.8766 15.3584 48.7013 15.2025C48.526 15.0465 48.4275 14.835 48.4275 14.6144V10.3945C48.4275 10.1739 48.526 9.96243 48.7013 9.80648C48.8766 9.65054 49.1143 9.56292 49.3622 9.56292H54.6906C54.9385 9.56292 55.1762 9.65054 55.3515 9.80648C55.5268 9.96243 55.6253 10.1739 55.6253 10.3945V14.6144C55.6253 14.835 55.5268 15.0465 55.3515 15.2025C55.1762 15.3584 54.9385 15.446 54.6906 15.446H49.3622ZM51.8299 17.8941C51.8299 17.6735 51.9283 17.462 52.1036 17.3061C52.2789 17.1501 52.5166 17.0625 52.7645 17.0625H58.0929C58.3408 17.0625 58.5786 17.1501 58.7539 17.3061C58.9291 17.462 59.0276 17.6735 59.0276 17.8941V22.1101C59.0276 22.3307 58.9291 22.5422 58.7539 22.6981C58.5786 22.8541 58.3408 22.9417 58.0929 22.9417H52.7645C52.522 22.9346 52.292 22.8439 52.1233 22.6887C51.9546 22.5335 51.8603 22.326 51.8604 22.1101L51.8299 17.8941ZM50.6812 2.89491C50.6812 2.67436 50.7797 2.46286 50.9549 2.30691C51.1302 2.15097 51.368 2.06335 51.6158 2.06335H56.9443C57.1922 2.06335 57.4299 2.15097 57.6052 2.30691C57.7805 2.46286 57.8789 2.67436 57.8789 2.89491V7.11488C57.8789 7.33542 57.7805 7.54693 57.6052 7.70288C57.4299 7.85883 57.1922 7.94643 56.9443 7.94643H51.6158C51.368 7.94643 51.1302 7.85883 50.9549 7.70288C50.7797 7.54693 50.6812 7.33542 50.6812 7.11488V2.89491ZM42.54 2.89491C42.54 2.67436 42.6385 2.46286 42.8138 2.30691C42.9891 2.15097 43.2268 2.06335 43.4747 2.06335H48.8031C49.051 2.06335 49.2888 2.15097 49.464 2.30691C49.6393 2.46286 49.7378 2.67436 49.7378 2.89491V7.11488C49.7378 7.33542 49.6393 7.54693 49.464 7.70288C49.2888 7.85883 49.051 7.94643 48.8031 7.94643H43.4834C43.2355 7.94643 42.9978 7.85883 42.8225 7.70288C42.6472 7.54693 42.5488 7.33542 42.5488 7.11488L42.54 2.89491ZM34.3945 2.89491C34.3945 2.67436 34.493 2.46286 34.6683 2.30691C34.8435 2.15097 35.0813 2.06335 35.3292 2.06335H40.6532C40.9011 2.06335 41.1389 2.15097 41.3141 2.30691C41.4894 2.46286 41.5879 2.67436 41.5879 2.89491V7.11488C41.5879 7.33542 41.4894 7.54693 41.3141 7.70288C41.1389 7.85883 40.9011 7.94643 40.6532 7.94643H35.3379C35.09 7.94643 34.8523 7.85883 34.677 7.70288C34.5017 7.54693 34.4032 7.33542 34.4032 7.11488L34.3945 2.89491ZM26.249 2.89491C26.249 2.67436 26.3475 2.46286 26.5227 2.30691C26.698 2.15097 26.9358 2.06335 27.1837 2.06335H32.5077C32.7556 2.06335 32.9933 2.15097 33.1686 2.30691C33.3439 2.46286 33.4424 2.67436 33.4424 2.89491V7.11488C33.4424 7.33542 33.3439 7.54693 33.1686 7.70288C32.9933 7.85883 32.7556 7.94643 32.5077 7.94643H27.1924C26.9445 7.94643 26.7068 7.85883 26.5315 7.70288C26.3562 7.54693 26.2577 7.33542 26.2577 7.11488L26.249 2.89491ZM18.1035 2.89491C18.1035 2.67436 18.2019 2.46286 18.3772 2.30691C18.5525 2.15097 18.7902 2.06335 19.0381 2.06335H24.3622C24.6101 2.06335 24.8478 2.15097 25.0231 2.30691C25.1984 2.46286 25.2969 2.67436 25.2969 2.89491V7.11488C25.2969 7.33542 25.1984 7.54693 25.0231 7.70288C24.8478 7.85883 24.6101 7.94643 24.3622 7.94643H19.0469C18.799 7.94643 18.5612 7.85883 18.386 7.70288C18.2107 7.54693 18.1122 7.33542 18.1122 7.11488L18.1035 2.89491ZM21.2525 10.3945V14.6144C21.2525 14.835 21.154 15.0465 20.9787 15.2025C20.8035 15.3584 20.5657 15.446 20.3178 15.446H14.9981C14.7502 15.446 14.5125 15.3584 14.3372 15.2025C14.1619 15.0465 14.0635 14.835 14.0635 14.6144V10.3945C14.0635 10.1739 14.1619 9.96243 14.3372 9.80648C14.5125 9.65054 14.7502 9.56292 14.9981 9.56292H20.3266C20.5744 9.56292 20.8122 9.65054 20.9875 9.80648C21.1628 9.96243 21.2612 10.1739 21.2612 10.3945H21.2525ZM9.95795 2.89491C9.95795 2.67436 10.0564 2.46286 10.2317 2.30691C10.407 2.15097 10.6447 2.06335 10.8926 2.06335H16.2167C16.4646 2.06335 16.7023 2.15097 16.8776 2.30691C17.0529 2.46286 17.1513 2.67436 17.1513 2.89491V7.11488C17.1513 7.33542 17.0529 7.54693 16.8776 7.70288C16.7023 7.85883 16.4646 7.94643 16.2167 7.94643H10.9013C10.6535 7.94643 10.4157 7.85883 10.2404 7.70288C10.0652 7.54693 9.96669 7.33542 9.96669 7.11488L9.95795 2.89491ZM1.81244 2.89491C1.81244 2.67436 1.91091 2.46286 2.08619 2.30691C2.26147 2.15097 2.49921 2.06335 2.7471 2.06335H8.07117C8.31905 2.06335 8.55678 2.15097 8.73207 2.30691C8.90735 2.46286 9.00583 2.67436 9.00583 2.89491V7.11488C9.00583 7.33542 8.90735 7.54693 8.73207 7.70288C8.55678 7.85883 8.31905 7.94643 8.07117 7.94643H2.75583C2.50794 7.94643 2.27021 7.85883 2.09493 7.70288C1.91964 7.54693 1.82117 7.33542 1.82117 7.11488L1.81244 2.89491ZM1.81244 10.3945C1.81244 10.1739 1.91091 9.96243 2.08619 9.80648C2.26147 9.65054 2.49921 9.56292 2.7471 9.56292H11.6788C11.9267 9.56292 12.1644 9.65054 12.3397 9.80648C12.515 9.96243 12.6134 10.1739 12.6134 10.3945V14.6144C12.6134 14.835 12.515 15.0465 12.3397 15.2025C12.1644 15.3584 11.9267 15.446 11.6788 15.446H2.75583C2.50794 15.446 2.27021 15.3584 2.09493 15.2025C1.91964 15.0465 1.82117 14.835 1.82117 14.6144L1.81244 10.3945ZM16.0595 29.6136C16.0595 29.8341 15.961 30.0457 15.7857 30.2016C15.6104 30.3575 15.3727 30.4452 15.1248 30.4452H2.75583C2.50794 30.4452 2.27021 30.3575 2.09493 30.2016C1.91964 30.0457 1.82117 29.8341 1.82117 29.6136V25.3936C1.82117 25.1731 1.91964 24.9616 2.09493 24.8056C2.27021 24.6497 2.50794 24.5621 2.75583 24.5621H15.1335C15.3814 24.5621 15.6191 24.6497 15.7944 24.8056C15.9697 24.9616 16.0682 25.1731 16.0682 25.3936L16.0595 29.6136ZM16.0595 22.114C16.0595 22.3346 15.961 22.5461 15.7857 22.702C15.6104 22.858 15.3727 22.9456 15.1248 22.9456H2.75583C2.50794 22.9456 2.27021 22.858 2.09493 22.702C1.91964 22.5461 1.82117 22.3346 1.82117 22.114V17.8941C1.82117 17.6735 1.91964 17.462 2.09493 17.3061C2.27021 17.1501 2.50794 17.0625 2.75583 17.0625H15.1335C15.3814 17.0625 15.6191 17.1501 15.7944 17.3061C15.9697 17.462 16.0682 17.6735 16.0682 17.8941L16.0595 22.114ZM17.4571 17.8941C17.4571 17.6735 17.5555 17.462 17.7308 17.3061C17.9061 17.1501 18.1438 17.0625 18.3917 17.0625H23.7158C23.9637 17.0625 24.2014 17.1501 24.3767 17.3061C24.552 17.462 24.6505 17.6735 24.6505 17.8941V22.1101C24.6505 22.3307 24.552 22.5422 24.3767 22.6981C24.2014 22.8541 23.9637 22.9417 23.7158 22.9417H18.4005C18.1526 22.9417 17.9149 22.8541 17.7396 22.6981C17.5643 22.5422 17.4658 22.3307 17.4658 22.1101L17.4571 17.8941ZM66.9722 29.6136C66.9722 29.8341 66.8737 30.0457 66.6985 30.2016C66.5232 30.3575 66.2854 30.4452 66.0376 30.4452H18.597C18.3491 30.4452 18.1114 30.3575 17.9361 30.2016C17.7608 30.0457 17.6624 29.8341 17.6624 29.6136V25.3936C17.6624 25.1731 17.7608 24.9616 17.9361 24.8056C18.1114 24.6497 18.3491 24.5621 18.597 24.5621H66.0463C66.2942 24.5621 66.5319 24.6497 66.7072 24.8056C66.8825 24.9616 66.981 25.1731 66.981 25.3936L66.9722 29.6136ZM67.6274 22.1101C67.6274 22.3307 67.5289 22.5422 67.3536 22.6981C67.1783 22.8541 66.9406 22.9417 66.6927 22.9417H61.3686C61.1207 22.9417 60.883 22.8541 60.7077 22.6981C60.5324 22.5422 60.434 22.3307 60.434 22.1101V17.8941C60.434 17.6735 60.5324 17.462 60.7077 17.3061C60.883 17.1501 61.1207 17.0625 61.3686 17.0625H66.7102C66.9581 17.0625 67.1958 17.1501 67.3711 17.3061C67.5464 17.462 67.6448 17.6735 67.6448 17.8941L67.6274 22.1101ZM83.0711 29.6097C83.0711 29.8302 82.9726 30.0418 82.7973 30.1977C82.6221 30.3537 82.3843 30.4413 82.1364 30.4413H69.5447C69.2968 30.4413 69.0591 30.3537 68.8838 30.1977C68.7085 30.0418 68.6101 29.8302 68.6101 29.6097V25.3936C68.6101 25.1731 68.7085 24.9616 68.8838 24.8056C69.0591 24.6497 69.2968 24.5621 69.5447 24.5621H82.1364C82.3843 24.5621 82.6221 24.6497 82.7973 24.8056C82.9726 24.9616 83.0711 25.1731 83.0711 25.3936V29.6097ZM83.0711 22.1101C83.0711 22.3307 82.9726 22.5422 82.7973 22.6981C82.6221 22.8541 82.3843 22.9417 82.1364 22.9417H69.9596C69.7118 22.9417 69.474 22.8541 69.2987 22.6981C69.1235 22.5422 69.025 22.3307 69.025 22.1101V17.8941C69.025 17.6735 69.1235 17.462 69.2987 17.3061C69.474 17.1501 69.7118 17.0625 69.9596 17.0625H82.1364C82.3843 17.0625 82.6221 17.1501 82.7973 17.3061C82.9726 17.462 83.0711 17.6735 83.0711 17.8941V22.1101ZM83.0711 14.6106C83.0711 14.8311 82.9726 15.0426 82.7973 15.1986C82.6221 15.3545 82.3843 15.4421 82.1364 15.4421H75.1483C74.9004 15.4421 74.6627 15.3545 74.4874 15.1986C74.3121 15.0426 74.2137 14.8311 74.2137 14.6106V10.3945C74.2137 10.1739 74.3121 9.96243 74.4874 9.80648C74.6627 9.65054 74.9004 9.56292 75.1483 9.56292H82.1364C82.3843 9.56292 82.6221 9.65054 82.7973 9.80648C82.9726 9.96243 83.0711 10.1739 83.0711 10.3945V14.6106ZM83.0711 7.11099C83.0711 7.33153 82.9726 7.54305 82.7973 7.69899C82.6221 7.85494 82.3843 7.94255 82.1364 7.94255H76.0611C75.8133 7.94255 75.5755 7.85494 75.4002 7.69899C75.225 7.54305 75.1265 7.33153 75.1265 7.11099V2.89491C75.1265 2.67436 75.225 2.46286 75.4002 2.30691C75.5755 2.15097 75.8133 2.06335 76.0611 2.06335H82.1364C82.3843 2.06335 82.6221 2.15097 82.7973 2.30691C82.9726 2.46286 83.0711 2.67436 83.0711 2.89491V7.11099Z" fill="url(#paint1_linear_96_75)"/>
</g>
<defs>
<linearGradient id="paint0_linear_96_75" x1="15.7232" y1="5.82868" x2="65.5482" y2="39.3385" gradientUnits="userSpaceOnUse">
<stop stop-color="#0047FF"/>
<stop offset="0.405" stop-color="#7000FF"/>
<stop offset="1" stop-color="#FF00D6"/>
</linearGradient>
<linearGradient id="paint1_linear_96_75" x1="15.7232" y1="5.82868" x2="65.5482" y2="39.3385" gradientUnits="userSpaceOnUse">
<stop stop-color="#0047FF"/>
<stop offset="0.405" stop-color="#7000FF"/>
<stop offset="1" stop-color="#FF00D6"/>
</linearGradient>
<clipPath id="clip0_96_75">
<rect width="84.875" height="34.125" fill="white" transform="translate(0.875 0.875)"/>
</clipPath>
<clipPath id="clip1_96_75">
<rect width="84.875" height="34.125" fill="white"/>
</clipPath>
<clipPath id="clip2_96_75">
<rect width="84.875" height="34.125" fill="white"/>
</clipPath>
</defs>
</svg>
