<svg width="47" height="47" viewBox="0 0 47 47" fill="none" xmlns="http://www.w3.org/2000/svg">
<path d="M23.5001 3.91663C20.9284 3.91663 18.3818 4.42316 16.0059 5.40732C13.6299 6.39147 11.4711 7.83397 9.65257 9.65245C5.97999 13.325 3.91675 18.3061 3.91675 23.5C3.91675 28.6938 5.97999 33.6749 9.65257 37.3475C11.4711 39.1659 13.6299 40.6084 16.0059 41.5926C18.3818 42.5768 20.9284 43.0833 23.5001 43.0833C28.6939 43.0833 33.675 41.0201 37.3476 37.3475C41.0202 33.6749 43.0834 28.6938 43.0834 23.5C43.0834 20.9282 42.5769 18.3817 41.5927 16.0057C40.6086 13.6298 39.1661 11.4709 37.3476 9.65245C35.5291 7.83397 33.3703 6.39147 30.9943 5.40732C28.6183 4.42316 26.0718 3.91663 23.5001 3.91663ZM23.5001 7.83329C27.6551 7.83329 31.64 9.48388 34.5781 12.422C37.5162 15.36 39.1667 19.3449 39.1667 23.5C39.1667 27.655 37.5162 31.6399 34.5781 34.578C31.64 37.516 27.6551 39.1666 23.5001 39.1666C19.345 39.1666 15.3601 37.516 12.4221 34.578C9.48401 31.6399 7.83341 27.655 7.83341 23.5C7.83341 19.3449 9.48401 15.36 12.4221 12.422C15.3601 9.48388 19.345 7.83329 23.5001 7.83329ZM23.5001 11.75C20.3838 11.75 17.3951 12.9879 15.1916 15.1915C12.988 17.395 11.7501 20.3837 11.7501 23.5C11.7501 26.6163 12.988 29.6049 15.1916 31.8085C17.3951 34.012 20.3838 35.25 23.5001 35.25C26.6164 35.25 29.605 34.012 31.8086 31.8085C34.0121 29.6049 35.2501 26.6163 35.2501 23.5C35.2501 20.3837 34.0121 17.395 31.8086 15.1915C29.605 12.9879 26.6164 11.75 23.5001 11.75ZM23.5001 15.6666C25.5776 15.6666 27.5701 16.4919 29.0391 17.961C30.5081 19.43 31.3334 21.4224 31.3334 23.5C31.3334 25.5775 30.5081 27.5699 29.0391 29.039C27.5701 30.508 25.5776 31.3333 23.5001 31.3333C21.4226 31.3333 19.4301 30.508 17.9611 29.039C16.492 27.5699 15.6667 25.5775 15.6667 23.5C15.6667 21.4224 16.492 19.43 17.9611 17.961C19.4301 16.4919 21.4226 15.6666 23.5001 15.6666ZM23.5001 19.5833C22.4613 19.5833 21.4651 19.9959 20.7306 20.7305C19.9961 21.465 19.5834 22.4612 19.5834 23.5C19.5834 24.5387 19.9961 25.5349 20.7306 26.2695C21.4651 27.004 22.4613 27.4166 23.5001 27.4166C24.5388 27.4166 25.5351 27.004 26.2696 26.2695C27.0041 25.5349 27.4167 24.5387 27.4167 23.5C27.4167 22.4612 27.0041 21.465 26.2696 20.7305C25.5351 19.9959 24.5388 19.5833 23.5001 19.5833Z" fill="#ECA5F8"/>
</svg>
