<svg width="72" height="43" viewBox="0 0 72 43" fill="none" xmlns="http://www.w3.org/2000/svg">
<path d="M71 39V40H72V39H71ZM36 4V5V4ZM1 39H0L5.96046e-08 40H1L1 39ZM9.75 39H8.75V40H9.75V39ZM36 12.75H37V11.75H36V12.75ZM36 13.9635V14.9635H37V13.9635H36ZM10.9635 39V40H11.9635V39H10.9635ZM30.6667 37C30.6667 39.9455 33.0545 42.3333 36 42.3333C38.9455 42.3333 41.3333 39.9455 41.3333 37C41.3333 34.0545 38.9455 31.6667 36 31.6667C33.0545 31.6667 30.6667 34.0545 30.6667 37ZM37 1C37 0.447715 36.5523 0 36 0C35.4477 0 35 0.447715 35 1H37ZM72 39C72 34.2724 71.0688 29.5911 69.2597 25.2234L67.4119 25.9888C69.1206 30.1138 70 34.5351 70 39H72ZM69.2597 25.2234C67.4505 20.8557 64.7988 16.8871 61.4558 13.5442L60.0416 14.9584C63.1988 18.1156 65.7032 21.8637 67.4119 25.9888L69.2597 25.2234ZM61.4558 13.5442C58.1129 10.2012 54.1443 7.54951 49.7766 5.74034L49.0112 7.5881C53.1363 9.29676 56.8844 11.8012 60.0416 14.9584L61.4558 13.5442ZM49.7766 5.74034C45.4089 3.93117 40.7276 3 36 3V5C40.4649 5 44.8862 5.87944 49.0112 7.5881L49.7766 5.74034ZM36 3C31.2724 3 26.5911 3.93117 22.2234 5.74034L22.9888 7.5881C27.1138 5.87944 31.5351 5 36 5V3ZM22.2234 5.74034C17.8557 7.54951 13.8871 10.2012 10.5442 13.5442L11.9584 14.9584C15.1156 11.8012 18.8637 9.29676 22.9888 7.5881L22.2234 5.74034ZM10.5442 13.5442C7.20124 16.8871 4.5495 20.8557 2.74034 25.2234L4.58809 25.9888C6.29675 21.8637 8.80118 18.1156 11.9584 14.9584L10.5442 13.5442ZM2.74034 25.2234C0.931167 29.5911 -3.57628e-07 34.2724 0 39H2C2 34.5351 2.87944 30.1138 4.58809 25.9888L2.74034 25.2234ZM10.75 39C10.75 32.3033 13.4103 25.8808 18.1456 21.1456L16.7313 19.7313C11.621 24.8417 8.75 31.7728 8.75 39H10.75ZM18.1456 21.1456C22.8808 16.4103 29.3033 13.75 36 13.75V11.75C28.7729 11.75 21.8417 14.621 16.7313 19.7313L18.1456 21.1456ZM35 12.75V13.9635H37V12.75H35ZM36 12.9635C29.0947 12.9635 22.4722 15.7066 17.5894 20.5894L19.0036 22.0036C23.5114 17.4959 29.6251 14.9635 36 14.9635V12.9635ZM17.5894 20.5894C12.7066 25.4722 9.96351 32.0947 9.9635 39H11.9635C11.9635 32.6251 14.4959 26.5113 19.0036 22.0036L17.5894 20.5894ZM10.9635 38H9.75V40H10.9635V38ZM37 37V1H35V37H37ZM1 40L71 40V38L1 38L1 40Z" fill="white"/>
</svg>
