<svg width="702" height="599" viewBox="0 0 702 599" fill="none" xmlns="http://www.w3.org/2000/svg">
<path d="M665.35 426.3H259.35C239.7 426.3 223.75 409.1 223.75 388.1C223.75 367.1 239.7 349.9 259.35 349.9H665.35C685.05 349.9 701 367.1 701 388.1C701 409.1 685 426.3 665.35 426.3ZM665.35 248.1H259.35C239.7 248.1 223.75 230.95 223.75 209.9C223.75 188.9 239.7 171.7 259.35 171.7H665.35C685.05 171.7 701 188.9 701 209.9C701 230.9 685 248.1 665.35 248.1ZM662.8 76.3H41.1C20.1 76.3 1.59995 60.4 0.999951 39.45C0.832298 34.3293 1.69645 29.2272 3.54097 24.4473C5.3855 19.6675 8.17271 15.3074 11.7367 11.6268C15.3008 7.94613 19.5688 5.02003 24.2868 3.0226C29.0049 1.02518 34.0765 -0.00273827 39.2 5.47829e-06H660.9C681.9 5.47829e-06 700.4 15.95 701 36.85C701.174 41.9748 700.315 47.0823 698.474 51.8681C696.633 56.6538 693.846 61.0198 690.282 64.7058C686.717 68.3919 682.447 71.3225 677.725 73.323C673.004 75.3235 667.928 76.353 662.8 76.35V76.3ZM178.6 425.7V172.4L0.999951 299.05L178.6 425.7C178.6 426.3 178.6 426.3 178.6 425.7ZM39.2 521.75H660.9C681.9 521.75 700.4 537.75 701 558.65C701.168 563.771 700.303 568.873 698.459 573.653C696.614 578.433 693.827 582.793 690.263 586.473C686.699 590.154 682.431 593.08 677.713 595.077C672.995 597.075 667.923 598.103 662.8 598.1H41.1C20.1 598.1 1.59995 582.15 0.999951 561.2C0.832298 556.079 1.69645 550.977 3.54097 546.197C5.3855 541.417 8.17271 537.057 11.7367 533.377C15.3008 529.696 19.5688 526.77 24.2868 524.773C29.0049 522.775 34.0765 521.747 39.2 521.75Z" fill="url(#paint0_linear_168_58)"/>
<defs>
<linearGradient id="paint0_linear_168_58" x1="19.3533" y1="74.3304" x2="812.014" y2="237.558" gradientUnits="userSpaceOnUse">
<stop stop-color="#001E86"/>
<stop offset="0.485" stop-color="#5C0094"/>
<stop offset="1" stop-color="#980092"/>
</linearGradient>
</defs>
</svg>
