<svg width="61" height="61" viewBox="0 0 61 61" fill="none" xmlns="http://www.w3.org/2000/svg">
<path d="M16.0506 15.6974C15.4152 14.0758 15.4406 12.2229 15.7228 10.5276C17.6645 11.1111 19.4884 12.0316 21.1111 13.2472C21.8228 13.7911 22.7556 13.9665 23.6248 13.7047C25.855 13.0358 28.1717 12.7001 30.5 12.7084C32.9426 12.7084 35.2631 13.0642 37.3701 13.7022C38.2394 13.9665 39.1722 13.7886 39.8813 13.2447C41.5032 12.0294 43.3263 11.1088 45.2671 10.5251C45.5492 12.2204 45.5721 14.0732 44.9418 15.6923C44.5605 16.6683 44.7511 17.7917 45.4704 18.5898C47.3106 20.6307 48.2917 22.9767 48.2917 25.4167C48.2917 30.7898 43.2846 36.0587 35.2428 37.6624C33.2298 38.064 32.4444 40.5981 33.9846 42.0494C34.9733 42.9796 35.5833 44.2911 35.5833 45.75V53.375C35.5833 54.0491 35.8511 54.6956 36.3278 55.1723C36.8044 55.6489 37.4509 55.9167 38.125 55.9167C38.7991 55.9167 39.4456 55.6489 39.9222 55.1723C40.3989 54.6956 40.6667 54.0491 40.6667 53.375V45.75C40.6667 44.3013 40.3617 42.9237 39.8178 41.6757C47.486 39.0146 53.375 33.0239 53.375 25.4167C53.375 21.9931 52.1448 18.8465 50.1039 16.2108C50.6376 14.1266 50.5893 12.0272 50.386 10.4158C50.2056 8.97211 49.9539 7.08111 48.9373 5.95261C47.425 4.27765 44.9214 5.26382 43.1423 5.87128C41.2328 6.51488 39.4167 7.40795 37.7412 8.52732C35.3752 7.9226 32.9421 7.61943 30.5 7.62503C27.9736 7.62503 25.5361 7.94274 23.2537 8.52986C21.5782 7.41049 19.7622 6.51742 17.8527 5.87382C16.0735 5.26382 13.5674 4.27765 12.0551 5.95261C11.0181 7.10145 10.8021 8.84249 10.6166 10.3217L10.6038 10.4183C10.4005 12.0323 10.3548 14.1342 10.8885 16.2209C8.85518 18.8541 7.62501 21.9956 7.62501 25.4167C7.62501 33.0214 13.5141 39.0146 21.1823 41.6757C20.6282 42.9451 20.3393 44.3142 20.3333 45.6992L19.9063 45.7856C18.084 46.0372 16.9173 45.811 16.1243 45.4755C14.1927 44.6571 13.1963 42.5958 11.9814 41.02C11.224 40.0414 10.1209 38.8189 8.42818 38.2547C8.11143 38.1492 7.777 38.1071 7.44399 38.1309C7.11099 38.1547 6.78593 38.2438 6.48737 38.3932C5.8844 38.6949 5.42598 39.2238 5.21297 39.8635C4.99996 40.5032 5.0498 41.2014 5.35152 41.8043C5.65324 42.4073 6.18213 42.8657 6.82185 43.0787C8.2401 43.5515 9.22118 45.9813 10.1209 47.059C11.069 48.1977 12.3296 49.3871 14.1368 50.1547C15.8702 50.8918 17.9061 51.1536 20.3333 50.8562V53.375C20.3333 54.0491 20.6011 54.6956 21.0778 55.1723C21.5544 55.6489 22.2009 55.9167 22.875 55.9167C23.5491 55.9167 24.1956 55.6489 24.6722 55.1723C25.1489 54.6956 25.4167 54.0491 25.4167 53.375V45.75C25.4167 44.2911 26.0267 42.9796 27.0154 42.0494C28.5582 40.5955 27.7703 38.064 25.7573 37.6624C17.7129 36.0587 12.7083 30.7898 12.7083 25.4167C12.7083 22.9818 13.6869 20.6358 15.5245 18.5949C16.2438 17.7968 16.4319 16.6734 16.0506 15.6974Z" fill="white"/>
</svg>
