<svg width="43" height="43" viewBox="0 0 43 43" fill="none" xmlns="http://www.w3.org/2000/svg">
<path d="M38.0729 21.5V27.5559C38.0734 28.3514 37.9171 29.1393 37.613 29.8744C37.3088 30.6096 36.8628 31.2776 36.3005 31.8403C35.7381 32.403 35.0703 32.8494 34.3354 33.154C33.6004 33.4585 32.8126 33.6153 32.0171 33.6153H15.5176C13.9116 33.6138 12.372 32.9745 11.2373 31.8379L5.76916 24.3667C5.21972 23.5115 4.92761 22.5165 4.92761 21.5C4.92761 20.4836 5.21972 19.4885 5.76916 18.6333L11.2409 11.1621C11.8029 10.5991 12.4704 10.1524 13.2051 9.84742C13.9399 9.54246 14.7275 9.38525 15.523 9.38477H32.0171C32.8126 9.38477 33.6004 9.54152 34.3354 9.84608C35.0703 10.1506 35.7381 10.597 36.3005 11.1597C36.8628 11.7225 37.3088 12.3905 37.613 13.1256C37.9171 13.8608 38.0734 14.6486 38.0729 15.4442V21.5Z" stroke="#ECA5F8" stroke-width="3" stroke-linecap="round" stroke-linejoin="round"/>
<path d="M17.2179 21.3298L20.7045 24.8164C20.827 24.9407 20.973 25.0394 21.134 25.1068C21.2951 25.1742 21.4679 25.2089 21.6424 25.2089C21.817 25.2089 21.9898 25.1742 22.1508 25.1068C22.3118 25.0394 22.4578 24.9407 22.5804 24.8164L29.6073 17.7913" stroke="#ECA5F8" stroke-width="3" stroke-linecap="round" stroke-linejoin="round"/>
</svg>
