<svg width="54" height="43" viewBox="0 0 54 43" fill="none" xmlns="http://www.w3.org/2000/svg">
<path d="M40.5 12.5416V30.4583M15.687 9.43663C15.488 9.3114 15.2487 9.23335 14.9965 9.21143C14.7444 9.18951 14.4896 9.22459 14.2613 9.31267C14.033 9.40075 13.8406 9.53826 13.7059 9.70943C13.5713 9.88061 13.4999 10.0785 13.5 10.2805V32.7193C13.5003 32.9212 13.572 33.1189 13.7068 33.2898C13.8416 33.4607 14.0341 33.5979 14.2623 33.6858C14.4905 33.7736 14.7451 33.8086 14.9971 33.7866C15.249 33.7646 15.4881 33.6866 15.687 33.5614L33.5317 22.3438C33.6919 22.2432 33.8213 22.115 33.9102 21.9688C33.9992 21.8227 34.0454 21.6623 34.0454 21.4999C34.0454 21.3375 33.9992 21.1772 33.9102 21.031C33.8213 20.8849 33.6919 20.7567 33.5317 20.656L15.687 9.43663Z" stroke="#ECA5F8" stroke-width="3" stroke-linecap="round" stroke-linejoin="round"/>
</svg>
