<svg width="95" height="95" viewBox="0 0 95 95" fill="none" xmlns="http://www.w3.org/2000/svg">
<circle cx="47.5" cy="47.5" r="47.5" fill="url(#paint0_linear_299_509)"/>
<path d="M56.0833 41.75L49 48.8333M63.1666 34.6667L66 31.8333M54.6666 20.5H43.3333M29.1666 48.8333C29.1666 51.4379 29.6796 54.0169 30.6763 56.4232C31.6731 58.8295 33.134 61.0159 34.9757 62.8576C36.8174 64.6993 39.0038 66.1602 41.4101 67.1569C43.8164 68.1537 46.3954 68.6667 49 68.6667C51.6045 68.6667 54.1836 68.1537 56.5898 67.1569C58.9961 66.1602 61.1825 64.6993 63.0242 62.8576C64.8659 61.0159 66.3269 58.8295 67.3236 56.4232C68.3203 54.0169 68.8333 51.4379 68.8333 48.8333C68.8333 43.5732 66.7437 38.5285 63.0242 34.8091C59.3048 31.0896 54.2601 29 49 29C43.7398 29 38.6951 31.0896 34.9757 34.8091C31.2562 38.5285 29.1666 43.5732 29.1666 48.8333Z" stroke="white" stroke-opacity="0.8" stroke-width="6" stroke-linecap="round" stroke-linejoin="round"/>
<defs>
<linearGradient id="paint0_linear_299_509" x1="2.49344" y1="11.8064" x2="111.257" y2="30.9419" gradientUnits="userSpaceOnUse">
<stop stop-color="#001E86"/>
<stop offset="0.485" stop-color="#5C0094"/>
<stop offset="1" stop-color="#980092"/>
</linearGradient>
</defs>
</svg>
