<svg width="55" height="53" viewBox="0 0 55 53" fill="none" xmlns="http://www.w3.org/2000/svg">
<g clip-path="url(#clip0_257_278)">
<path fill-rule="evenodd" clip-rule="evenodd" d="M39.274 0.832866C39.6864 0.434261 40.2125 0.162779 40.7854 0.0529075C41.3582 -0.0569643 41.9521 -0.000267952 42.4915 0.215795L50.8475 3.55479C51.5681 3.84152 52.1415 4.39178 52.4419 5.08503C52.7423 5.77828 52.7454 6.55802 52.4504 7.25344L49.0365 15.3057C48.8159 15.8256 48.4403 16.2708 47.957 16.585C47.4738 16.8992 46.9048 17.0682 46.3218 17.0706C45.7389 17.073 45.1684 16.9088 44.6823 16.5987C44.1963 16.2886 43.8167 15.8465 43.5915 15.3284L42.244 12.2241L8.30896 26.1972C7.95299 26.3438 7.57052 26.4215 7.1834 26.4257C6.79628 26.4299 6.41209 26.3606 6.05276 26.2218C5.69343 26.0829 5.366 25.8772 5.08916 25.6164C4.81233 25.3556 4.59151 25.0448 4.43932 24.7018C4.28713 24.3588 4.20654 23.9902 4.20216 23.6172C4.19778 23.2441 4.26969 22.8739 4.41378 22.5276C4.55788 22.1814 4.77134 21.8658 5.04198 21.5991C5.31262 21.3323 5.63513 21.1195 5.99111 20.9729L39.9693 6.98465L38.6454 3.93715C38.4189 3.41799 38.3577 2.84563 38.4696 2.29286C38.5815 1.74009 38.8615 1.23188 39.274 0.832866ZM50.0893 20.7457C51.1312 20.7457 52.1305 21.1446 52.8672 21.8545C53.604 22.5645 54.0179 23.5274 54.0179 24.5314V51.0314C54.0179 51.5335 53.8109 52.0149 53.4426 52.3699C53.0742 52.7249 52.5746 52.9243 52.0536 52.9243H42.2322C41.7112 52.9243 41.2116 52.7249 40.8432 52.3699C40.4748 52.0149 40.2679 51.5335 40.2679 51.0314V24.5314C40.2679 23.5274 40.6818 22.5645 41.4185 21.8545C42.1553 21.1446 43.1545 20.7457 44.1965 20.7457H50.0893ZM33.224 27.5297C32.4867 26.8211 31.4877 26.4235 30.4465 26.4243H24.5536C23.5117 26.4243 22.5124 26.8231 21.7757 27.5331C21.0389 28.2431 20.625 29.206 20.625 30.21V51.0314C20.625 51.5335 20.832 52.0149 21.2004 52.3699C21.5687 52.7249 22.0684 52.9243 22.5893 52.9243H32.4107C32.9317 52.9243 33.4313 52.7249 33.7997 52.3699C34.1681 52.0149 34.375 51.5335 34.375 51.0314V30.21C34.3754 29.7123 34.274 29.2193 34.0765 28.7594C33.879 28.2995 33.5893 27.8816 33.224 27.5297ZM10.8036 32.1029C11.8455 32.1029 12.8448 32.5017 13.5815 33.2117C14.3183 33.9216 14.7322 34.8845 14.7322 35.8886V51.0314C14.7322 51.5335 14.5252 52.0149 14.1569 52.3699C13.7885 52.7249 13.2889 52.9243 12.7679 52.9243H2.94646C2.4255 52.9243 1.92588 52.7249 1.5575 52.3699C1.18913 52.0149 0.982178 51.5335 0.982178 51.0314V35.8886C0.982178 34.8845 1.39608 33.9216 2.13283 33.2117C2.86958 32.5017 3.86883 32.1029 4.91075 32.1029H10.8036Z" fill="white"/>
</g>
<defs>
<clipPath id="clip0_257_278">
<rect width="55" height="53" fill="white"/>
</clipPath>
</defs>
</svg>
