<svg width="46" height="46" viewBox="0 0 46 46" fill="none" xmlns="http://www.w3.org/2000/svg">
<path d="M13.4167 38.3333H32.5833M11.5 11.5L23 9.58333L34.5 11.5M11.5 11.5L17.25 23C17.25 24.525 16.6442 25.9875 15.5659 27.0659C14.4875 28.1442 13.025 28.75 11.5 28.75C9.97501 28.75 8.51247 28.1442 7.43414 27.0659C6.3558 25.9875 5.75 24.525 5.75 23L11.5 11.5ZM34.5 11.5L40.25 23C40.25 24.525 39.6442 25.9875 38.5659 27.0659C37.4875 28.1442 36.025 28.75 34.5 28.75C32.975 28.75 31.5125 28.1442 30.4341 27.0659C29.3558 25.9875 28.75 24.525 28.75 23L34.5 11.5ZM23 5.75V38.3333" stroke="#ECA5F8" stroke-width="3" stroke-linecap="round" stroke-linejoin="round"/>
</svg>
