<svg width="50" height="50" viewBox="0 0 50 50" fill="none" xmlns="http://www.w3.org/2000/svg">
<g clip-path="url(#clip0_351_240)">
<path d="M28.7345 34.6423C29.3426 34.3967 29.6365 33.7046 29.3909 33.0965C29.1453 32.4884 28.4532 32.1945 27.8451 32.4401C27.237 32.6857 26.9431 33.3777 27.1887 33.9859C27.4343 34.594 28.1263 34.8879 28.7345 34.6423Z" fill="#ECA5F8"/>
<path d="M38.3691 14.1023C37.558 12.0939 35.5207 10.9624 33.4666 11.1785L8.91923 13.4539C8.4317 13.4833 7.95163 13.5877 7.49595 13.7635C5.06693 14.7445 3.8893 17.5176 4.87025 19.9466C5.13839 20.6106 5.54864 21.1698 6.04102 21.6279L23.2667 38.592C24.2565 39.5743 25.5124 40.2452 26.8793 40.5217C28.2461 40.7981 29.6641 40.6681 30.9578 40.1476C32.1354 39.671 33.1642 38.8882 33.9375 37.8803C34.7109 36.8724 35.2007 35.6761 35.3562 34.4153L38.5688 16.9942C38.8076 16.0332 38.7377 15.0214 38.3691 14.1023ZM25.6217 26.9344C24.3588 27.4462 23.2691 28.3095 22.4819 29.4219C21.6947 30.5343 21.243 31.8491 21.1804 33.2104L10.5237 22.726C10.7002 22.6778 10.8794 22.6426 11.0533 22.5723C13.4824 21.5914 14.66 18.8183 13.679 16.3892C13.5368 16.0369 13.3494 15.7219 13.1387 15.4254L29.666 13.8941C29.3912 14.481 29.24 15.1181 29.2218 15.7659C29.2036 16.4137 29.3188 17.0584 29.5603 17.6597C30.515 20.0238 33.1653 21.1857 35.5449 20.3425L33.9119 29.174C32.0083 26.7245 28.6388 25.716 25.6217 26.9344ZM36.1669 14.9917C36.6574 16.2062 36.0686 17.5928 34.854 18.0832C33.6395 18.5737 32.253 17.9849 31.7625 16.7704C31.272 15.5559 31.8608 14.1693 33.0753 13.6788C34.2899 13.1884 35.6769 13.7783 36.1669 14.9917ZM8.3853 15.9657C9.59981 15.4753 10.9868 16.0652 11.4769 17.2786C11.9669 18.492 11.3785 19.8797 10.164 20.3701C8.94949 20.8606 7.56293 20.2718 7.07245 19.0573C6.58197 17.8428 7.17079 16.4562 8.3853 15.9657ZM30.0685 37.9454C27.6395 38.9263 24.8663 37.7487 23.8854 35.3197C22.9044 32.8907 24.0821 30.1175 26.5111 29.1366C28.9401 28.1556 31.7132 29.3333 32.6942 31.7623C33.6751 34.1913 32.4975 36.9644 30.0685 37.9454Z" fill="#ECA5F8"/>
</g>
<defs>
<clipPath id="clip0_351_240">
<rect width="38" height="38" fill="white" transform="translate(0 14.2295) rotate(-21.9911)"/>
</clipPath>
</defs>
</svg>
