<svg width="58" height="58" viewBox="0 0 58 58" fill="none" xmlns="http://www.w3.org/2000/svg">
<path d="M11.1553 43.5C10.0421 43.5 9.11325 43.1278 8.36892 42.3835C7.62458 41.6392 7.25161 40.7096 7.25 39.5947V18.4053C7.25 17.2921 7.62297 16.3632 8.36892 15.6189C9.11486 14.8746 10.0429 14.5016 11.1529 14.5H46.8471C47.9588 14.5 48.8868 14.873 49.6311 15.6189C50.3754 16.3649 50.7484 17.2937 50.75 18.4053V39.5971C50.75 40.7087 50.377 41.6376 49.6311 42.3835C48.8851 43.1294 47.9571 43.5016 46.8471 43.5H11.1553ZM11.1553 41.0833H46.8471C47.2176 41.0833 47.5584 40.9287 47.8693 40.6193C48.1803 40.31 48.3349 39.9684 48.3333 39.5947V18.4053C48.3333 18.0332 48.1787 17.6916 47.8693 17.3807C47.56 17.0697 47.2193 16.9151 46.8471 16.9167H11.1529C10.7824 16.9167 10.4416 17.0713 10.1307 17.3807C9.81972 17.69 9.66506 18.0316 9.66667 18.4053V39.5971C9.66667 39.9676 9.82133 40.3084 10.1307 40.6193C10.44 40.9303 10.7807 41.0849 11.1529 41.0833M19.8916 38.1108H38.1084V34.3892H19.8916V38.1108ZM12.6416 30.8608H16.3584V27.1392H12.6416V30.8608ZM19.8916 30.8608H23.6084V27.1392H19.8916V30.8608ZM27.1416 30.8608H30.8584V27.1392H27.1416V30.8608ZM34.3916 30.8608H38.1084V27.1392H34.3916V30.8608ZM41.6416 30.8608H45.3584V27.1392H41.6416V30.8608ZM12.6416 23.6108H16.3584V19.8892H12.6416V23.6108ZM19.8916 23.6108H23.6084V19.8892H19.8916V23.6108ZM27.1416 23.6108H30.8584V19.8892H27.1416V23.6108ZM34.3916 23.6108H38.1084V19.8892H34.3916V23.6108ZM41.6416 23.6108H45.3584V19.8892H41.6416V23.6108Z" fill="#ECA5F8"/>
</svg>
