<svg width="80" height="80" viewBox="0 0 80 80" fill="none" xmlns="http://www.w3.org/2000/svg">
<path d="M0 40C0 17.9086 17.9086 0 40 0C62.0914 0 80 17.9086 80 40C80 62.0914 62.0914 80 40 80C17.9086 80 0 62.0914 0 40Z" fill="url(#paint0_linear_299_522)"/>
<path fill-rule="evenodd" clip-rule="evenodd" d="M38.3787 20.7537C39.5503 19.5821 41.4497 19.5821 42.6213 20.7537L56.8713 35.0037C58.0429 36.1753 58.0429 38.0747 56.8713 39.2463C55.6997 40.4179 53.8003 40.4179 52.6287 39.2463L43.5 30.1176V56.125C43.5 57.7819 42.1569 59.125 40.5 59.125C38.8431 59.125 37.5 57.7819 37.5 56.125V30.1176L28.3713 39.2463C27.1997 40.4179 25.3003 40.4179 24.1287 39.2463C22.9571 38.0747 22.9571 36.1753 24.1287 35.0037L38.3787 20.7537Z" fill="white"/>
<defs>
<linearGradient id="paint0_linear_299_522" x1="2.09974" y1="9.9422" x2="93.6902" y2="26.0563" gradientUnits="userSpaceOnUse">
<stop stop-color="#001E86"/>
<stop offset="0.485" stop-color="#5C0094"/>
<stop offset="1" stop-color="#980092"/>
</linearGradient>
</defs>
</svg>
