<svg width="43" height="43" viewBox="0 0 43 43" fill="none" xmlns="http://www.w3.org/2000/svg">
<path d="M29.0537 16.822L19.7191 26.1566M19.7173 16.8417L29.0537 26.1781" stroke="#ECA5F8" stroke-width="3" stroke-miterlimit="10" stroke-linecap="round"/>
<path d="M38.0729 21.5V27.5559C38.0734 28.3514 37.9171 29.1393 37.613 29.8744C37.3088 30.6096 36.8628 31.2776 36.3005 31.8403C35.7381 32.403 35.0703 32.8494 34.3354 33.154C33.6004 33.4585 32.8126 33.6153 32.0171 33.6153H15.5176C13.9116 33.6138 12.372 32.9745 11.2373 31.8379L5.76916 24.3667C5.21972 23.5115 4.92761 22.5165 4.92761 21.5C4.92761 20.4836 5.21972 19.4885 5.76916 18.6333L11.2409 11.1621C11.8029 10.5991 12.4704 10.1524 13.2051 9.84742C13.9399 9.54246 14.7275 9.38525 15.523 9.38477H32.0171C32.8126 9.38477 33.6004 9.54152 34.3354 9.84608C35.0703 10.1506 35.7381 10.597 36.3005 11.1597C36.8628 11.7225 37.3088 12.3905 37.613 13.1256C37.9171 13.8608 38.0734 14.6486 38.0729 15.4442V21.5Z" stroke="#ECA5F8" stroke-width="3" stroke-linecap="round" stroke-linejoin="round"/>
</svg>
